<svg xmlns="http://www.w3.org/2000/svg" xmlns:xlink="http://www.w3.org/1999/xlink" width="510.138" height="199.726" viewBox="0 0 510.138 199.726"><defs><clipPath id="a"><rect width="510.138" height="199.726" fill="none"/></clipPath></defs><g transform="translate(0 157)"><g transform="translate(0 -157)" clip-path="url(#a)"><path d="M392.792,40.553a43.7,43.7,0,0,0-85.736-8.41A43.7,43.7,0,0,0,264.9,0a42.009,42.009,0,0,0-5.373.336V26.578H273.2V34.9H259.532V45.593a16.129,16.129,0,0,0,16.114,16.114v8.327h-1.488A22.954,22.954,0,0,1,251.2,47.081V2.19a43.8,43.8,0,0,0-28.328,29.526,43.7,43.7,0,0,0-84.194.545A43.738,43.738,0,0,0,80.269,3.114a1.44,1.44,0,0,0-.9,1.341V24.841A25.472,25.472,0,1,1,71.035,43.7c0-.248,0-.485.022-.723h-.022V8.188a43.7,43.7,0,1,0,67.649,46.937,43.669,43.669,0,0,0,16.7,24.078V44.418h.022c-.022-.238-.022-.475-.022-.723A25.448,25.448,0,1,1,163.72,62.55V82.936a1.441,1.441,0,0,0,.9,1.341,43.742,43.742,0,0,0,58.266-28.618,43.7,43.7,0,0,0,84.172-.408A43.706,43.706,0,0,0,323.73,79.2V44.418h.022c-.022-.238-.022-.475-.022-.723a25.448,25.448,0,1,1,8.337,18.854V82.936a1.444,1.444,0,0,0,.9,1.341,43.735,43.735,0,0,0,59.828-43.724M113.63,43.7A17.123,17.123,0,1,0,96.5,60.813,17.12,17.12,0,0,0,113.63,43.7m252.7,0A17.123,17.123,0,1,0,349.2,60.813,17.12,17.12,0,0,0,366.325,43.7m-168.36,0a17.118,17.118,0,1,0-17.118,17.118A17.11,17.11,0,0,0,197.965,43.7" transform="translate(-52.807)" fill="#fff"/><path d="M.594,71.839,0,75.805H15.5v40.621l5.232-.983V75.805H36.232l-.594-3.967Z" transform="translate(0 48.698)" fill="#fff"/><path d="M60.761,91.579H34.323V71.839H29.082v44.588l5.242-.983V95.537H60.761v19.906l5.242.983V71.839H60.761Z" transform="translate(19.714 48.698)" fill="#fff"/><path d="M65.862,95.413H86.877V91.646H65.862V75.672H92.77l-.594-3.834H60.687v44.59H92.444l.594-3.834H65.862Z" transform="translate(41.138 48.698)" fill="#fff"/><path d="M162.477,86.6l-9.141,22.989L144.4,87.261l-3.873-9.7-2.3-5.74h-7.648v44.291l4.341-.661V75.9l15.812,40.217h4.129l13.666-34.133,2.4-6.017v39.489l4.839.661L175.749,77.9l.029-.181V71.823h-7.426Z" transform="translate(88.521 48.687)" fill="#fff"/><path d="M190.671,71.827H185.75l-.742,1.738-.485,1.133-.742,1.74-4.664,10.92-8.129,19.066-4.139,9.693h4.812l2.468-5.73,2.265-5.272h22.812l2.2,5.272,2.4,5.73h5.609Zm-12.686,29.418L187.8,78.1l9.733,23.15Z" transform="translate(113.103 48.69)" fill="#fff"/><path d="M223.585,71.827h-4.908l-.485,1.133L217.45,74.7l-.485,1.133-.742,1.74-4.664,10.92-11.8,27.626h4.812l2.468-5.73,2.265-5.272H232.12l2.2,5.272,2.4,5.73h5.609Zm-12.673,29.418,9.8-23.15,9.733,23.15Z" transform="translate(135.414 48.69)" fill="#fff"/><path d="M265.227,116.115l5.2-.661V71.824h-5.2Z" transform="translate(179.791 48.688)" fill="#fff"/><path d="M299.819,71.112c-13.145,0-22.017,8.668-22.017,23.284,0,14.6,9.074,23.474,22.017,23.474,13.01,0,22-8.873,22-23.474,0-14.616-8.925-23.284-22-23.284m-.067,42.685c-9.668,0-16.475-6.93-16.475-19.4,0-12.418,6.876-19.28,16.542-19.28,9.681,0,16.544,6.862,16.544,19.28,0,12.472-6.931,19.4-16.611,19.4" transform="translate(188.316 48.205)" fill="#fff"/><path d="M130.9,109.786c-4.034-2.933-10.042-9.306-17.238-9.133a17.423,17.423,0,0,0-6.6,1.438l.354-.852,9.8-23.143,7.849,18.7.805,1.859a4.642,4.642,0,0,0,4.215,2.856,2.567,2.567,0,0,0,2.195-.862l-12.2-28.824h-4.906l-.738,1.743-.488,1.123-.738,1.743-4.666,10.925-8.136,19.059-1.772,4.159-2.367,5.539h4.81l2.463-5.74.029-.057c.307-.576,2.99-5.2,10.272-5.2,9.468,0,15.9,14.814,26.5,10.2v-5.252s-3.891,3.757-9.44-.287" transform="translate(65.258 48.691)" fill="#fff"/><path d="M271.62,111.519v4.557c-13.064.985-12.134-16.3-21.046-20.52-5.6-2.643-9.614-.836-11.015,0v19.913l-5.029.648-.029-22.1-.027-.013c.013-.013.013-.013.027-.013l-.027-22.071v-.094H253.3c10.274,0,15.262,4.611,15.262,12.807a13.786,13.786,0,0,1-1.106,5.569A5.07,5.07,0,0,1,263.3,93.29a3.945,3.945,0,0,1-3.532-1.537,8.074,8.074,0,0,0,3.6-7.119c0-5.864-3.545-9.128-10.732-9.128H239.559V90.945a16.769,16.769,0,0,1,12.754.5c6.581,2.913,9.29,11.245,11.69,15.626,2.508,4.571,6.054,4.68,7.618,4.45" transform="translate(158.945 48.69)" fill="#fff"/></g></g></svg>