<svg xmlns="http://www.w3.org/2000/svg" width="58.852" height="71.124" viewBox="0 0 58.852 71.124"><g transform="translate(-594.062 -8781.587)"><path d="M523.93,403.711c-.45,0-.716-.288-.731-.789-.059-2-.088-3.98-.084-5.895a1.461,1.461,0,0,0-1.623-1.665c-2.02-.066-4.078-.221-6.067-.372l-.418-.031c-2.7-.2-3.258-.793-3.32-3.5-.038-1.684-.025-3.4-.013-5.063.006-.754.012-1.509.013-2.263v-1.381l-.558-.03c-.512-.028-1.012-.052-1.5-.077-1.1-.054-2.14-.105-3.185-.182-.522-.038-.865-.158-.99-.347a1.38,1.38,0,0,1,.066-1.072c.388-1.154.789-2.326,1.178-3.459.814-2.375,1.655-4.832,2.422-7.27a9.467,9.467,0,0,0,.531-3.841,17.78,17.78,0,0,1,2.9-12.49,22.143,22.143,0,0,1,9.163-7.586,24.664,24.664,0,0,1,10.364-2.4,23.038,23.038,0,0,1,5.827.763A20.294,20.294,0,0,1,552.722,358.5c2.336,6.8,1.981,14-1.084,22.024a44.633,44.633,0,0,1-6.8,11.807,2.808,2.808,0,0,0-.53,1.659c-.025,1.89-.023,3.809-.021,5.666q0,1.2,0,2.4a6.661,6.661,0,0,1-.047.931.657.657,0,0,1-.752.657h-.061c-.639-.024-.733-.347-.739-.692l-.011-.6c-.057-3.077-.116-6.259-.1-9.385a2.043,2.043,0,0,1,.544-1.076c5.006-6.53,7.957-13.046,9.021-19.92.987-6.374.161-11.771-2.525-16.5a18.231,18.231,0,0,0-15.592-9.621c-.629-.038-1.257-.058-1.867-.058-7.683,0-13.8,3.048-18.191,9.059a13.9,13.9,0,0,0-2.686,9.109c.07,1.395.1,2.617.09,3.737a13.838,13.838,0,0,1-1.205,4.8c-.266.7-.541,1.421-.764,2.155-.369,1.211-.783,2.4-1.221,3.667-.2.576-.4,1.162-.607,1.765l-.25.738.778.04c.425.022.838.045,1.243.068.9.05,1.746.1,2.6.127,1.353.048,1.551.263,1.511,1.644-.043,1.524-.056,3.07-.069,4.566-.011,1.378-.023,2.8-.059,4.2-.04,1.585,1.034,1.809,1.847,1.84,2.148.081,4.273.207,6.8.371,2.209.143,2.619.539,2.74,2.646.1,1.658.092,3.358.089,5,0,.53,0,1.061,0,1.592,0,.373-.093.725-.79.779l-.083,0" transform="translate(91 8449)" fill="#fcc980"/><path d="M532.08,384.509c-.227,0-.828-.015-.835-1.154l0-.521c-.01-1.8-.022-3.656.013-5.48a1.434,1.434,0,0,0-1.327-1.619,48.06,48.06,0,0,1-5.187-1.535,1.542,1.542,0,0,1-.793-.848.667.667,0,0,1,.092-.6.857.857,0,0,1,.685-.3,1.315,1.315,0,0,1,.457.087c.414.156.835.325,1.242.488.341.136.682.273,1.024.4a.814.814,0,0,0,.295.052,1.885,1.885,0,0,0,.2-.014c.055-.006.124-.014.212-.018l1.255-.062-4.348-4.737c-.119-.13-.241-.258-.363-.386-.255-.266-.495-.518-.708-.786a.863.863,0,0,1,.036-1.279.882.882,0,0,1,.542-.239.934.934,0,0,1,.646.36c.983,1.053,1.973,2.136,2.929,3.184q.74.809,1.48,1.618c.107.116.221.217.331.315q.074.064.153.138l.763.707.215-1.017c.306-1.447-.329-3.267-1.788-5.123-2.127-2.706-6.121-5.5-9.638-5.6l-.639-.019.032.638a15.247,15.247,0,0,0,2.754,8.377c.058.081.119.161.179.24.1.135.2.262.277.389a.778.778,0,0,1-.2,1.195,1.022,1.022,0,0,1-.581.227.588.588,0,0,1-.516-.346c-.185-.317-.375-.634-.565-.951a21.371,21.371,0,0,1-2.094-4.138,28.518,28.518,0,0,1-1.027-5.7l-.041-.368a1.672,1.672,0,0,1,.159-1.2,1.219,1.219,0,0,1,.9-.244c.112,0,.235.005.365.015a16.436,16.436,0,0,1,12.4,7.073c.063.085.123.18.187.281s.132.206.2.306a.75.75,0,0,0,.579.31h.452l.083-.308q.408-.468.809-.938c.7-.822,1.368-1.6,2.1-2.335a1.032,1.032,0,0,1,.651-.357.831.831,0,0,1,.57.305.8.8,0,0,1,.277.553,1.278,1.278,0,0,1-.507.8,10.551,10.551,0,0,0-3.109,4.587,11.55,11.55,0,0,0-.337,1.4c-.04.2-.079.4-.123.6l-.1.45.983.49.309-.245c.054-.046.111-.091.167-.136a3.652,3.652,0,0,0,.447-.4q.927-1.01,1.85-2.022c.791-.866,1.609-1.762,2.418-2.637a1.144,1.144,0,0,1,.767-.444.7.7,0,0,1,.459.2.809.809,0,0,1,.29.564,1.111,1.111,0,0,1-.314.788c-.821.93-1.676,1.861-2.5,2.761q-.6.651-1.2,1.3c-.164.18-.323.364-.505.575l-.288.332-1.033,1.182,1.556-.21c6.238-.844,9.122-7.862,8.8-12.6l-.052-.779-.735.264c-.375.134-.746.262-1.113.389-.848.293-1.649.57-2.452.9a2.452,2.452,0,0,1-.886.227c-.243,0-.431-.075-.613-.449a.8.8,0,0,1-.077-.668,1.177,1.177,0,0,1,.759-.556,41.322,41.322,0,0,1,5.475-1.532,3.809,3.809,0,0,1,.7-.077c.494,0,.644.158.694.209a2.073,2.073,0,0,1,.271,1.431,19.528,19.528,0,0,1-2.782,9.684c-2.025,3.262-5.2,5.165-9.7,5.82-1.138.165-1.588.681-1.554,1.78.047,1.535.035,3.1.023,4.621q0,.585-.008,1.169c-.007,1.2-.643,1.2-.852,1.2Z" transform="translate(91 8449)" fill="#fcc980"/><path d="M556.932,355.51a.753.753,0,0,1-.716-.515c-.094-.2-.34-.746.594-1.218,1.219-.618,2.536-1.273,3.9-1.881a1.012,1.012,0,0,1,.414-.1c.425,0,.722.355.786.92-.017.022-.034.046-.051.069a2.2,2.2,0,0,1-.563.607c-1.213.712-2.511,1.352-3.737,1.946a1.479,1.479,0,0,1-.631.168" transform="translate(91 8449)" fill="#fcc980"/><path d="M550.3,346.631a.816.816,0,0,1-.521-.235c-.252-.218-.6-.516.148-1.385q.309-.361.616-.727c.717-.851,1.459-1.732,2.256-2.508a1.249,1.249,0,0,1,.746-.216.888.888,0,0,1,.223.024,2.04,2.04,0,0,1,.415.471c.035.047.07.1.106.142-.027.057-.053.111-.077.163a2.963,2.963,0,0,1-.33.6c-.783.944-1.647,1.943-2.719,3.144a1.355,1.355,0,0,1-.863.53" transform="translate(91 8449)" fill="#fcc980"/><path d="M508.148,353.633a1.456,1.456,0,0,1-.615-.168c-1.206-.588-2.5-1.249-3.963-2.02-.306-.162-.634-.438-.459-.835a2.472,2.472,0,0,1,.6-.68l.109-.1.166.055a4.461,4.461,0,0,1,.591.221c1.016.512,2.353,1.191,3.685,1.9.753.4.693.8.534,1.14-.2.433-.465.483-.645.483" transform="translate(91 8449)" fill="#fcc980"/><path d="M514.541,345.855a.932.932,0,0,1-.67-.427l-.064-.084c-.885-1.157-1.8-2.354-2.587-3.588a1.331,1.331,0,0,1-.057-.97,1.963,1.963,0,0,1,.486-.386l.151-.1.177.122a3.073,3.073,0,0,1,.69.563c.833,1.082,1.622,2.237,2.384,3.355l.072.1c.433.635.283.933-.122,1.234a.782.782,0,0,1-.46.178" transform="translate(91 8449)" fill="#fcc980"/><path d="M538.318,341.26a.431.431,0,0,1-.051,0,.6.6,0,0,1-.441-.236.483.483,0,0,1-.075-.411,43.9,43.9,0,0,1,1.465-5.027,1.53,1.53,0,0,1,.78-.259.376.376,0,0,1,.064,0c.156.035.409.328.6.543l.136.156c-.128.42-.249.83-.368,1.231-.389,1.311-.757,2.549-1.218,3.722a1.692,1.692,0,0,1-.887.278" transform="translate(91.458 8446.262)" fill="#fcc980"/><path d="M525,341.517c-.371,0-.626-.263-.757-.78-.415-1.636-.716-2.98-.949-4.23a1.031,1.031,0,0,1,.135-.831,1.045,1.045,0,0,1,.793-.3c.477.027.655.48.719.75.34,1.434.644,2.865.9,4.251.156.834-.27,1.033-.6,1.11a1.123,1.123,0,0,1-.242.029" transform="translate(91.458 8446.262)" fill="#fcc980"/></g></svg>