<svg xmlns="http://www.w3.org/2000/svg" width="70.949" height="68.466" viewBox="0 0 70.949 68.466"><g transform="translate(-109.657 -8784.285)"><path d="M72.352,348.531a19.133,19.133,0,0,1-.181,3.034c-.015.124.011.158.132.169.717.069,1.436.123,2.149.225a22.85,22.85,0,0,1,2.907.59q.3.084.6.163a1.142,1.142,0,0,1,.866,1.42,22.741,22.741,0,0,1-.857,2.84,25.233,25.233,0,0,1-1.859,3.989,19.838,19.838,0,0,1-1.375,2.08,17.142,17.142,0,0,1-2.069,2.3,14.092,14.092,0,0,1-3.413,2.337,14.293,14.293,0,0,1-3.034,1.066,18.247,18.247,0,0,1-2.511.409,27.417,27.417,0,0,1-2.836.088,7.581,7.581,0,0,1-1.3-.1,1.082,1.082,0,0,1-.84-.9,1.157,1.157,0,0,1,.514-1.128,1.522,1.522,0,0,1,1.005-.159,16.178,16.178,0,0,0,2.089.036c.5-.034.991-.068,1.487-.114a14.551,14.551,0,0,0,1.932-.342,12.358,12.358,0,0,0,2.435-.852,10.913,10.913,0,0,0,2.637-1.74,17.114,17.114,0,0,0,1.315-1.31,15.468,15.468,0,0,0,1.141-1.462A19.86,19.86,0,0,0,74.9,358.4a20.751,20.751,0,0,0,.937-2.211c.151-.429.3-.859.449-1.289.09-.264.058-.3-.209-.35-.543-.1-1.082-.229-1.628-.3-.618-.083-1.237-.175-1.86-.215-.236-.014-.471-.039-.706-.063-.109-.012-.169,0-.206.134a20.123,20.123,0,0,1-.977,2.761,15.7,15.7,0,0,1-2.2,3.5,17.234,17.234,0,0,1-1.613,1.706,18.553,18.553,0,0,1-2.328,1.862c-.242.162-.481.329-.724.489a1.135,1.135,0,0,1-1.592-.312,1.153,1.153,0,0,1,.348-1.574,20.951,20.951,0,0,0,1.848-1.327c.246-.2.484-.4.717-.615a14.627,14.627,0,0,0,2.827-3.382,14.416,14.416,0,0,0,1.516-3.674,20.875,20.875,0,0,0,.528-3.006,24.658,24.658,0,0,0,.07-3,26.13,26.13,0,0,0-.323-3.255c-.076-.567-.206-1.122-.32-1.68a5.509,5.509,0,0,0-.117-.551c-.034-.109-.069-.15-.19-.115a28.11,28.11,0,0,0-3.133,1.128c-.409.172-.818.347-1.211.547-.66.335-1.324.665-1.951,1.061-.174.111-.352.216-.529.321a.177.177,0,0,0-.085.255,20.657,20.657,0,0,1,.748,2.245,17.936,17.936,0,0,1,.494,2.773,15.2,15.2,0,0,1,.052,2.237,16.341,16.341,0,0,1-.356,2.7,20.251,20.251,0,0,1-1.2,3.68c-.29.673-.626,1.327-.98,1.971a27.081,27.081,0,0,1-1.759,2.785c-.4.555-.813,1.1-1.255,1.629q-1.108,1.317-2.339,2.521a1.2,1.2,0,0,1-1.562.142,11.612,11.612,0,0,1-1.136-1.1q-.506-.547-.992-1.113c-.525-.614-1.029-1.243-1.505-1.895a27.042,27.042,0,0,1-1.659-2.547,25.591,25.591,0,0,1-1.336-2.69,18.423,18.423,0,0,1-.823-2.353,15.407,15.407,0,0,1-.5-2.5c-.059-.573-.125-1.144-.136-1.72a16.627,16.627,0,0,1,.184-2.628,18.449,18.449,0,0,1,.666-2.831c.137-.448.324-.876.473-1.319.038-.112.029-.173-.076-.238q-.854-.523-1.738-1a25.043,25.043,0,0,0-2.915-1.321c-.715-.274-1.436-.525-2.171-.741-.14-.041-.184,0-.211.123-.178.849-.364,1.7-.481,2.558-.092.672-.173,1.346-.239,2.021-.015.157-.015.316-.016.473,0,.608-.061,1.214-.037,1.822a22.765,22.765,0,0,0,.334,3.363,16.669,16.669,0,0,0,.878,3.057,13,13,0,0,0,1.935,3.324,17.125,17.125,0,0,0,2.265,2.312,19.143,19.143,0,0,0,2.11,1.552,1.133,1.133,0,1,1-1.291,1.861,24.865,24.865,0,0,1-2.333-1.739c-.44-.374-.87-.757-1.272-1.171a17.211,17.211,0,0,1-1.992-2.432,16.007,16.007,0,0,1-2.187-4.955.156.156,0,0,0-.192-.14c-.477.041-.954.075-1.43.123a23.84,23.84,0,0,0-2.835.471c-.229.052-.249.058-.175.285.262.8.529,1.589.863,2.359.234.54.473,1.077.743,1.6a21.505,21.505,0,0,0,1.376,2.315,15.042,15.042,0,0,0,2.056,2.426,11.561,11.561,0,0,0,2.677,1.931,12.468,12.468,0,0,0,2.471.966,13.568,13.568,0,0,0,2.212.426,23.089,23.089,0,0,0,2.706.139c.454-.011.908-.055,1.362-.066a1.082,1.082,0,0,1,1.033.7,1.134,1.134,0,0,1-.286,1.252,1.064,1.064,0,0,1-.657.279,20.329,20.329,0,0,1-2.492.071,19.528,19.528,0,0,1-3.643-.425,16.48,16.48,0,0,1-2.859-.909,13.588,13.588,0,0,1-3.294-2.019,16.349,16.349,0,0,1-2.495-2.59,20.873,20.873,0,0,1-1.879-2.877,25.926,25.926,0,0,1-1.637-3.653,26.7,26.7,0,0,1-.8-2.685,1.124,1.124,0,0,1,.756-1.326,18.723,18.723,0,0,1,2.064-.521c.543-.1,1.082-.229,1.631-.287.62-.066,1.237-.162,1.861-.186.367-.015.378-.022.33-.381a23.3,23.3,0,0,1-.167-3.743,24.239,24.239,0,0,1,.227-2.716c.1-.721.185-1.444.342-2.156.126-.575.224-1.156.4-1.721a8.4,8.4,0,0,1,.261-.908,1.087,1.087,0,0,1,1.3-.712A16.314,16.314,0,0,1,41.8,340c.874.276,1.729.608,2.574.963A27.679,27.679,0,0,1,48,342.825c.325.2.318.2.5-.136a27.43,27.43,0,0,1,1.775-2.817c.5-.69,1.011-1.366,1.562-2.014.3-.355.631-.688.938-1.039.32-.367.668-.706,1.016-1.044a1.613,1.613,0,0,1,.587-.422,1.152,1.152,0,0,1,1.249.322A31.429,31.429,0,0,1,58.6,339a31.007,31.007,0,0,1,2.278,3.423c.087.153.175.306.25.464.05.105.1.112.2.056.329-.2.658-.392.993-.576.585-.321,1.172-.639,1.778-.922.688-.32,1.382-.627,2.091-.9a29.558,29.558,0,0,1,3.453-1.09,1.181,1.181,0,0,1,1.285.326,1.309,1.309,0,0,1,.256.479,27.225,27.225,0,0,1,.828,3.729c.124.814.22,1.633.28,2.456.048.667.069,1.333.059,2.088m-11.047,2.986c.006-.285-.051-.785-.1-1.286a15.245,15.245,0,0,0-.827-3.517,18.228,18.228,0,0,0-.894-2.091,24.786,24.786,0,0,0-1.472-2.554q-.7-1.076-1.506-2.077c-.518-.642-1.048-1.274-1.615-1.874-.1-.111-.169-.1-.258.007-.177.207-.359.41-.542.612-.522.576-1.009,1.181-1.479,1.8q-.788,1.036-1.473,2.146a22.4,22.4,0,0,0-1.562,2.979,16.5,16.5,0,0,0-.954,2.9,13.527,13.527,0,0,0-.371,3.66,17.381,17.381,0,0,0,.2,1.824,15.83,15.83,0,0,0,.881,3.13,19.079,19.079,0,0,0,1.021,2.234,25.994,25.994,0,0,0,1.572,2.559c.485.691,1,1.356,1.529,2.015.371.465.8.882,1.183,1.334.1.113.161.1.26,0,.461-.475.9-.969,1.315-1.485a29.8,29.8,0,0,0,2.191-3.063,22.794,22.794,0,0,0,1.694-3.32,15.775,15.775,0,0,0,1.026-3.615,15.015,15.015,0,0,0,.185-2.319" transform="translate(91 8449)" fill="#fcc980"/><path d="M89.6,373.6c0,2.565.009,5.13,0,7.694a8.127,8.127,0,0,1-.46,2.583,8.736,8.736,0,0,1-1.486,2.675c-.289.358-.611.69-.921,1.031-.474.52-.953,1.034-1.423,1.557a1.158,1.158,0,0,1-1.565.118,1.132,1.132,0,0,1-.115-1.663q1-1.072,1.99-2.151a6.431,6.431,0,0,0,1.406-2.4,7.153,7.153,0,0,0,.3-1.511c.039-.407.027-.813.028-1.219q0-7.137,0-14.276a1.555,1.555,0,0,0-.632-1.331,1.491,1.491,0,0,0-2.192.284,1.658,1.658,0,0,0-.37,1.1c0,4.084.01,8.168-.008,12.252A6.192,6.192,0,0,1,84,380.149a4,4,0,0,1-.99,1.7q-2.661,2.675-5.335,5.339a1.187,1.187,0,0,1-1.192.354,1.121,1.121,0,0,1-.819-.96,1.18,1.18,0,0,1,.374-.983q2.665-2.658,5.325-5.323a1.595,1.595,0,0,0-2.066-2.427,2.7,2.7,0,0,0-.3.263q-4.5,4.5-9,9a7.591,7.591,0,0,0-2.035,3.578,6.257,6.257,0,0,0-.2,1.365c-.081,3.511-.025,7.023-.026,10.535a1.145,1.145,0,0,1-1.584,1.071,1.126,1.126,0,0,1-.672-1.038q0-2.726,0-5.452c0-1.459.01-2.917,0-4.376a10.194,10.194,0,0,1,.8-4.183,8.658,8.658,0,0,1,1.558-2.486c1.37-1.481,2.836-2.869,4.258-4.3q2.718-2.735,5.452-5.455a3.8,3.8,0,0,1,2.282-1.1,3.841,3.841,0,0,1,1.89.245c.144.055.156.009.156-.12q0-4.6,0-9.208a4.1,4.1,0,0,1,1.29-3.048,3.565,3.565,0,0,1,2.079-1A3.853,3.853,0,0,1,89.57,365.4a3.989,3.989,0,0,1,.033.617V373.6" transform="translate(91 8449)" fill="#fcc980"/><path d="M24.139,372.712V366.2a1.9,1.9,0,0,0-.419-1.25,1.5,1.5,0,0,0-2.141-.259,1.679,1.679,0,0,0-.665,1.429c-.006,1.963-.017,3.926.006,5.889a1.127,1.127,0,0,1-2.253.013c0-2.078-.025-4.157.009-6.235a3.6,3.6,0,0,1,1-2.418,3.768,3.768,0,0,1,3.145-1.258,3.612,3.612,0,0,1,2.62,1.362,4.2,4.2,0,0,1,.957,2.3,2.413,2.413,0,0,1,.008.255v9.116c0,.092,0,.183,0,.274,0,.109.033.137.143.1a4.045,4.045,0,0,1,1.492-.28,3.916,3.916,0,0,1,2,.575,5.638,5.638,0,0,1,1.042.875q4.473,4.475,8.943,8.951a9.641,9.641,0,0,1,1.437,1.893,9.952,9.952,0,0,1,1.22,3.387,6.716,6.716,0,0,1,.1,1.157c.006,3.507,0,7.014.009,10.52a1.128,1.128,0,0,1-1.551,1.071,1.158,1.158,0,0,1-.7-1.023c0-.584,0-1.167,0-1.751q0-4.184,0-8.368a7.549,7.549,0,0,0-2.158-5.308q-4.62-4.623-9.246-9.241a1.536,1.536,0,0,0-1.582-.4,1.513,1.513,0,0,0-1.107,1.172,1.574,1.574,0,0,0,.465,1.531q2.682,2.693,5.375,5.377a1.105,1.105,0,0,1,.246,1.257,1.074,1.074,0,0,1-1.091.667,1.055,1.055,0,0,1-.747-.322c-1.843-1.852-3.7-3.694-5.538-5.549a3.716,3.716,0,0,1-.988-2.068,3.875,3.875,0,0,1-.033-.654v-6.272" transform="translate(91 8449)" fill="#fcc980"/><path d="M28.507,399.018c0-1.118-.01-2.236.006-3.354a1.347,1.347,0,0,0-.407-.977c-.73-.786-1.466-1.567-2.188-2.362-.632-.7-1.273-1.382-1.912-2.07-.7-.751-1.377-1.518-2.074-2.269-.449-.484-.912-.957-1.332-1.466a8.4,8.4,0,0,1-1.69-3.431,8.674,8.674,0,0,1-.246-2.033q0-2.316,0-4.631a1.118,1.118,0,0,1,.624-1.07,1.09,1.09,0,0,1,1.231.125.943.943,0,0,1,.394.783q0,2.207,0,4.412a7.68,7.68,0,0,0,.325,2.294,6.335,6.335,0,0,0,1.166,2.165c.443.539.942,1.027,1.413,1.541.565.617,1.126,1.238,1.69,1.855.29.318.584.633.875.949l2.271,2.46c.428.463.86.922,1.283,1.39a3.02,3.02,0,0,1,.815,1.864c.1,1.529.023,3.06.038,4.59q.015,1.386,0,2.771a1.155,1.155,0,0,1-.7,1.1,1.125,1.125,0,0,1-1.546-.831,3.222,3.222,0,0,1-.032-.489v-3.318" transform="translate(91 8449)" fill="#fcc980"/></g></svg>