<svg xmlns="http://www.w3.org/2000/svg" width="15.339" height="15.339" viewBox="0 0 15.339 15.339"><path d="M11.106,0H4.233A4.238,4.238,0,0,0,0,4.233v6.873a4.238,4.238,0,0,0,4.233,4.233h6.873a4.238,4.238,0,0,0,4.233-4.233V4.233A4.238,4.238,0,0,0,11.106,0Zm2.872,11.106a2.875,2.875,0,0,1-2.872,2.872H4.233a2.875,2.875,0,0,1-2.872-2.872V4.233A2.875,2.875,0,0,1,4.233,1.361h6.873a2.875,2.875,0,0,1,2.872,2.872v6.873Z" transform="translate(0 0)" fill="#fff"/><path d="M44.92,40.97a3.952,3.952,0,1,0,3.952,3.952A3.957,3.957,0,0,0,44.92,40.97Zm0,6.544a2.591,2.591,0,1,1,2.591-2.591A2.594,2.594,0,0,1,44.92,47.514Z" transform="translate(-37.251 -37.253)" fill="#fff"/><path d="M119.919,28.251a1,1,0,1,0,.706.292A1,1,0,0,0,119.919,28.251Z" transform="translate(-108.132 -25.688)" fill="#fff"/></svg>