<svg xmlns="http://www.w3.org/2000/svg" width="76.425" height="44.135" viewBox="0 0 76.425 44.135"><path d="M990.183,372.131c-5.4-4.417-4.185-10.79-1.042-13.746a8.9,8.9,0,1,1,11.353,13.648l4.239,2.376c1.14-.757,2.332-1.658,3.625-2.375,1.272-.706,2.646-1.225,4.03-1.851a12.065,12.065,0,0,1-6.04-10.617,11.644,11.644,0,0,1,3.857-8.843,12.174,12.174,0,1,1,14.569,19.35l7.659,4.228,4.067-2.285a8.883,8.883,0,0,1-3.638-8A8.51,8.51,0,0,1,1035.99,358a8.855,8.855,0,0,1,12.366.977,8.977,8.977,0,0,1-1.55,13.088c.23.125.424.249.632.343a14.941,14.941,0,0,1,9.218,12.713,7.061,7.061,0,0,1,.035,1.049,1.164,1.164,0,0,1-1.147,1.277c-.736.028-1.129-.446-1.242-1.185a28.444,28.444,0,0,0-.7-4.024c-2.456-8.038-13.166-11.322-19.471-6.035.912,1.364,1.9,2.681,2.717,4.1a19.773,19.773,0,0,1,2.607,9.664,1.706,1.706,0,0,1-.23,1.08,1.4,1.4,0,0,1-1.107.489,1.634,1.634,0,0,1-.962-.98c-.222-.919-.2-1.894-.344-2.835a18.582,18.582,0,0,0-35.179-4.879,18.78,18.78,0,0,0-1.74,6.993c-.01.19-.021.381-.041.571-.08.734-.457,1.215-1.225,1.185a1.1,1.1,0,0,1-1.128-1.271,32.448,32.448,0,0,1,.447-4.265,20.223,20.223,0,0,1,4.725-9.454c.081-.092.143-.2.261-.363a12.075,12.075,0,0,0-8.219-2.545,12.52,12.52,0,0,0-12.038,12.137c-.005.1-.011.19-.014.286a1.234,1.234,0,0,1-1.2,1.347c-.684.056-1.217-.573-1.2-1.427A14.868,14.868,0,0,1,984.344,376a15.08,15.08,0,0,1,5.839-3.869m28.281-2.767a9.746,9.746,0,1,0-9.745-9.681,9.716,9.716,0,0,0,9.745,9.681m-29.621-4.6a6.451,6.451,0,1,0,6.4-6.47,6.458,6.458,0,0,0-6.4,6.47m59.274-.068a6.452,6.452,0,1,0-6.351,6.518,6.462,6.462,0,0,0,6.351-6.518" transform="translate(-980.271 -347.45)" fill="#fcc980"/></svg>