<svg xmlns="http://www.w3.org/2000/svg" width="10.707" height="13.178" viewBox="0 0 10.707 13.178"><g transform="translate(-108.121)"><path d="M7.783,0C4.17,0,2.25,2.315,2.25,4.839a3.535,3.535,0,0,0,1.7,3.093c.3.135.259-.03.516-1.013a.233.233,0,0,0-.056-.229C2.914,4.959,4.119,1.4,7.569,1.4c4.993,0,4.06,6.909.869,6.909A1.178,1.178,0,0,1,7.2,6.864a15.646,15.646,0,0,0,.7-2.66c0-1.729-2.575-1.472-2.575.818a2.771,2.771,0,0,0,.25,1.186s-.829,3.347-.982,3.973a8.883,8.883,0,0,0,.061,2.92.087.087,0,0,0,.158.04,10.355,10.355,0,0,0,1.364-2.569c.1-.376.521-1.9.521-1.9a2.277,2.277,0,0,0,1.921.916c2.524,0,4.348-2.218,4.348-4.971C12.948,1.975,10.69,0,7.783,0Z" transform="translate(105.871 0)" fill="#fff"/></g></svg>