<svg xmlns="http://www.w3.org/2000/svg" width="61.854" height="58.003" viewBox="0 0 61.854 58.003"><g transform="translate(-1480.112 -8797.542)"><path d="M1437.047,382.2q4.215-1.23,8.44-2.465c2.174-.637,4.342-1.294,6.519-1.92a4.648,4.648,0,0,1,3.55,8.532c-3.526,1.894-7.086,3.724-10.634,5.576-2.948,1.538-5.928,3.018-8.842,4.618a16.015,16.015,0,0,1-10.5,1.779c-7.328-1.14-14.665-2.218-21.991-3.368a1.98,1.98,0,0,1-1.225-.851c-2.013-3.392-3.972-6.816-5.931-10.24-.548-.959-.411-1.456.486-1.975,4.74-2.74,9.472-5.493,14.226-8.208a11.844,11.844,0,0,1,11.258-.567c3.495,1.553,7.028,3.02,10.538,4.541,2.5,1.083,2.975,1.621,4.1,4.548m-38.315,1.21c1.77,3.063,3.5,6.073,5.26,9.066a1.115,1.115,0,0,0,.713.391c1.479.256,2.964.478,4.448.7,5.384.82,10.774,1.6,16.149,2.473a13.532,13.532,0,0,0,8.54-.9c3.812-1.92,7.588-3.91,11.375-5.878q4.584-2.384,9.155-4.791a2.411,2.411,0,0,0,1.339-2.642,2.3,2.3,0,0,0-2.02-1.932,5.48,5.48,0,0,0-1.9.26q-7.159,2.09-14.3,4.252a1.831,1.831,0,0,0-.972.845,5.514,5.514,0,0,1-5.718,3.148q-4.086-.428-8.173-.834c-.872-.087-1.407-.54-1.374-1.182.036-.709.637-1.093,1.562-1,2.726.266,5.45.548,8.178.793a3.248,3.248,0,0,0,1.561-6.279c-3.626-1.552-7.281-3.039-10.866-4.679a9.918,9.918,0,0,0-9.774.557c-2.05,1.218-4.127,2.39-6.192,3.584l-6.995,4.043" transform="translate(84 8457)" fill="#fcc980"/><path d="M1431.375,355a14.65,14.65,0,0,1,5.084,3.456,7.328,7.328,0,0,1,2.341,4.72,4.416,4.416,0,0,1-4.4,4.745c-4.891.047-9.783.065-14.673,0a4.54,4.54,0,0,1-3.965-6.607,12.388,12.388,0,0,1,6.407-6.057c.185-.08.364-.171.561-.264a6.96,6.96,0,0,1-.433-10.3,6.888,6.888,0,0,1,9.515,0,6.977,6.977,0,0,1-.439,10.315m-4.37,10.727c2.354,0,4.71.038,7.063-.011,2.182-.044,3.2-1.745,2.164-3.652a10.355,10.355,0,0,0-18.308-.091c-1.131,2.028-.072,3.724,2.281,3.751,2.267.025,4.533,0,6.8,0m4.643-16.112a4.592,4.592,0,1,0-4.618,4.61,4.653,4.653,0,0,0,4.618-4.61" transform="translate(84 8457)" fill="#fcc980"/><path d="M1439.153,352.669a7.015,7.015,0,0,1-.515-10.215,7.152,7.152,0,0,1,9.57-.148,7.057,7.057,0,0,1-.35,10.372c.431.215.835.415,1.238.617a12.367,12.367,0,0,1,5.729,5.8,4.511,4.511,0,0,1-3.736,6.5c-2.91.135-5.831.042-8.747.034a1.01,1.01,0,0,1-1.14-1.072c0-.775.483-1.1,1.2-1.1q4.022-.012,8.042,0a2.467,2.467,0,0,0,2.1-.912,2.311,2.311,0,0,0,.238-2.569,10.377,10.377,0,0,0-14.165-4.559c-.157.081-.305.178-.462.258a1.035,1.035,0,0,1-1.473-.326.985.985,0,0,1,.258-1.478,24.867,24.867,0,0,1,2.2-1.19m-.249-5.312a4.593,4.593,0,1,0,4.554-4.666,4.706,4.706,0,0,0-4.554,4.666" transform="translate(84 8457)" fill="#fcc980"/><path d="M1406.289,352.688a6.972,6.972,0,0,1-.563-10.158,6.892,6.892,0,0,1,9.446-.32c3.024,2.7,2.965,6.524-.2,10.525.571.254,1.14.479,1.683.757.886.452,1.179,1.112.826,1.762-.342.631-.936.709-1.828.243a10.415,10.415,0,0,0-14.252,4.335,2.355,2.355,0,0,0,2.2,3.6c2.622.027,5.245-.009,7.866.026a1.78,1.78,0,0,1,1.178.412,1.163,1.163,0,0,1,.131,1.108,1.619,1.619,0,0,1-1.131.622c-2.061.06-4.124.028-6.187.028-.648,0-1.3.006-1.944,0a4.555,4.555,0,0,1-4.272-6.488,11.973,11.973,0,0,1,5.64-5.753c.433-.243.889-.443,1.409-.7m4.349-10a4.638,4.638,0,1,0,4.569,4.652,4.664,4.664,0,0,0-4.569-4.652" transform="translate(83.907 8457.262)" fill="#fcc980"/></g></svg>