<?xml version="1.0" standalone="no"?>
<!DOCTYPE svg PUBLIC "-//W3C//DTD SVG 1.1//EN" "http://www.w3.org/Graphics/SVG/1.1/DTD/svg11.dtd" >
<svg xmlns="http://www.w3.org/2000/svg" xmlns:xlink="http://www.w3.org/1999/xlink" version="1.1">
<metadata>
Created by FontForge 20190801 at Mon Apr 29 11:54:44 2024
 By www-data
Noel Leu
</metadata>
<defs>
<font id="gt_super_display_regular" horiz-adv-x="1187" >
  <font-face 
    font-family="gt_super_display_regular"
    font-weight="400"
    font-stretch="normal"
    units-per-em="2048"
    panose-1="0 0 5 0 0 0 0 0 0 0"
    ascent="1563"
    descent="-485"
    x-height="1026"
    cap-height="1434"
    bbox="-53 -440 2015 1782"
    underline-thickness="102"
    underline-position="-204"
    unicode-range="U+000D-FB04"
  />
<missing-glyph horiz-adv-x="748" 
d="M68 0v1365h544v-1365h-544zM136 68h408v1229h-408v-1229z" />
    <glyph glyph-name="uniFB01" unicode="fi" horiz-adv-x="1171" 
d="M51 0v14q82 10 113 34t31 81v866h-136v31h136v51q0 209 110.5 306.5t294.5 97.5q74 0 160 -19.5t157.5 -64.5t73.5 -105q0 -43 -27.5 -68.5t-72.5 -25.5q-78 0 -146 115q-74 117 -213 117q-92 0 -157.5 -59.5t-65.5 -166.5q0 -98 88 -178h152v-31h-152v-866
q0 -57 31 -80.5t113 -34.5v-14h-490zM641 0v14q82 10 112.5 34t30.5 81v676q0 88 -28.5 111.5t-114.5 19.5v14l346 92v-913q0 -57 31 -80.5t112 -34.5v-14h-489z" />
    <glyph glyph-name="uniFB02" unicode="fl" horiz-adv-x="1161" 
d="M51 0v14q82 10 113 34t31 81v866h-136v31h136v37q0 217 112.5 317.5t302.5 100.5q219 0 369 -84v-1288q6 -45 38 -64.5t103 -30.5v-14h-487v14q82 10 112.5 34t30.5 81v1182q-72 117 -235 116q-100 0 -163 -60t-63 -157q0 -113 82 -184h187v-31h-187v-866q0 -57 31 -80.5
t113 -34.5v-14h-490z" />
    <glyph glyph-name=".notdef" horiz-adv-x="748" 
d="M68 0v1365h544v-1365h-544zM136 68h408v1229h-408v-1229z" />
    <glyph glyph-name="glyph1" horiz-adv-x="0" 
 />
    <glyph glyph-name="glyph2" horiz-adv-x="682" 
 />
    <glyph glyph-name="uni000D" unicode="&#xd;" horiz-adv-x="681" 
 />
    <glyph glyph-name="space" unicode=" " horiz-adv-x="452" 
 />
    <glyph glyph-name="exclam" unicode="!" horiz-adv-x="563" 
d="M150 106q0 53 37.5 92.5t93 39.5t94.5 -39t39 -93q0 -55 -38 -94t-95 -39q-55 0 -93 39t-38 94zM154 1337q0 68 35.5 103t91.5 35q57 0 93 -34t36 -104q0 -31 -4 -55l-113 -881h-25l-110 881q-4 25 -4 55z" />
    <glyph glyph-name="quotedbl" unicode="&#x22;" horiz-adv-x="776" 
d="M96 1368q2 55 37 91t88 36t88 -36t37 -91q0 -31 -14 -88l-101 -297h-22l-98 297q-14 57 -15 88zM432 1368q2 55 37 91t88 36t88 -36t37 -91q0 -31 -14 -88l-101 -297h-22l-99 297q-14 57 -14 88z" />
    <glyph glyph-name="numbersign" unicode="#" horiz-adv-x="1280" 
d="M41 465v47h338l90 416h-352v49h362l99 457h49l-99 -457h330l98 457h50l-99 -457h332v-49h-342l-90 -416h356v-47h-366l-105 -485h-49l105 485h-330l-105 -485h-49l105 485h-328zM428 512h330l90 416h-330z" />
    <glyph glyph-name="dollar" unicode="$" horiz-adv-x="1030" 
d="M74 70l41 385h12q23 -195 123 -308.5t258 -123.5v552l-125 60q-150 70 -219.5 163t-69.5 224q0 164 114 268.5t300 112.5v133h49v-133q205 -4 371 -94l-43 -373h-13q-51 377 -315 414v-531l127 -61q150 -70 213.5 -159t63.5 -222q0 -170 -110 -279.5t-294 -126.5v-176
h-49v174h-14q-229 0 -420 101zM223 1126q0 -84 47 -137.5t176 -114.5l62 -30v510h-14q-125 0 -198 -61.5t-73 -166.5zM557 23q121 4 189.5 70.5t68.5 178.5q0 86 -48 145.5t-165 112.5l-45 21v-528z" />
    <glyph glyph-name="percent" unicode="%" horiz-adv-x="1527" 
d="M82 999.5q0 159.5 87 257t230.5 97.5t229.5 -97.5t86 -257t-86 -257t-229.5 -97.5t-230.5 97.5t-87 257zM231 999.5q0 -145.5 43 -235.5t125 -90t124 90t42 235.5t-42 235.5t-124 90t-125 -90t-43 -235.5zM295 -82l879 1479h63l-875 -1479h-67zM813 313.5q0 159.5 87 257
t230.5 97.5t229.5 -97.5t86 -257t-86 -257t-229.5 -97.5t-230.5 97.5t-87 257zM963 313.5q0 -145.5 43 -235.5t124.5 -90t123.5 90t42 235.5t-42 235.5t-123.5 90t-124.5 -90t-43 -235.5z" />
    <glyph glyph-name="ampersand" unicode="&#x26;" horiz-adv-x="1509" 
d="M57 350q0 160 91.5 275.5t267.5 175.5l-19 22q-88 109 -128 186.5t-40 164.5q0 129 100.5 215t276.5 86q201 0 336 -89l-53 -331h-15q-4 176 -73.5 280.5t-210.5 104.5q-100 0 -151.5 -48.5t-51.5 -116t32 -124.5t122 -166l622 -758q102 -125 199 -125q82 1 119 101
l12 -4q-27 -111 -99.5 -172.5t-166.5 -61.5q-78 0 -131.5 36t-122.5 122l-103 125q-57 -131 -166.5 -207t-248.5 -76q-168 0 -283 108.5t-115 276.5zM240 483q0 -170 97 -285.5t259 -115.5q176 0 258 186l-424 516q-190 -78 -190 -301z" />
    <glyph glyph-name="quotesingle" unicode="'" horiz-adv-x="442" 
d="M96 1368q2 55 37 91t88 36t88 -36t37 -91q0 -31 -14 -88l-101 -297h-22l-98 297q-14 57 -15 88z" />
    <glyph glyph-name="parenleft" unicode="(" horiz-adv-x="612" 
d="M82 620.5q0 180.5 48 341t125 273.5t162 190.5t171 116.5l8 -6q-172 -139 -262 -384t-90 -531.5t90 -531.5t262 -384l-8 -6q-86 39 -171 117t-162 190.5t-125 273t-48 341z" />
    <glyph glyph-name="parenright" unicode=")" horiz-adv-x="612" 
d="M16 -295q172 139 262.5 384t90.5 531.5t-90.5 531.5t-262.5 384l9 6q86 -39 171 -116.5t161.5 -190.5t124.5 -273.5t48 -341t-48 -341t-124.5 -273t-161.5 -190.5t-171 -117z" />
    <glyph glyph-name="asterisk" unicode="*" horiz-adv-x="782" 
d="M100 1278q23 72 105 47q31 -8 74 -43l98 -80l-45 119q-18 39 -19 84q0 37 19.5 60.5t56.5 23.5q74 0 78 -84q2 -35 -16 -84l-45 -119l98 80q37 35 74 43q81 25 104 -47q20 -70 -59 -100q-20 -8 -82 -9l-125 7l102 -68q37 -23 66 -57q51 -66 -15 -115q-55 -43 -110 22
q-20 25 -37 80l-31 121l-33 -121q-12 -51 -34 -80q-55 -66 -111 -22q-57 43 -14 115q18 31 65 57l101 68l-123 -7q-59 0 -84 9q-78 31 -58 100z" />
    <glyph glyph-name="plus" unicode="+" 
d="M184 612v39h389v387h43v-387h388v-39h-388v-387h-43v387h-389z" />
    <glyph glyph-name="comma" unicode="," horiz-adv-x="493" 
d="M96 117q0 51 33 86t90 35q66 0 112 -53.5t46 -151.5q0 -100 -49.5 -177t-188.5 -122l-8 26q164 49 164 148q0 59 -94 88q-104 31 -105 121z" />
    <glyph glyph-name="hyphen" unicode="-" horiz-adv-x="753" 
d="M82 588v76h588v-76h-588z" />
    <glyph glyph-name="period" unicode="." horiz-adv-x="456" 
d="M96 106q0 53 38 92.5t93.5 39.5t94 -39t38.5 -93q0 -55 -38 -94t-95 -39q-55 0 -93 39t-38 94z" />
    <glyph glyph-name="slash" unicode="/" horiz-adv-x="688" 
d="M16 -123l600 1684h54l-600 -1684h-54z" />
    <glyph glyph-name="zero" unicode="0" horiz-adv-x="1206" 
d="M86 553q0 272 148.5 429t369.5 157q219 0 367.5 -157t148.5 -429t-148.5 -428t-367.5 -156q-221 0 -369.5 156t-148.5 428zM313 553q0 -268 67.5 -403.5t223.5 -135.5q154 0 222.5 136.5t68.5 402.5q0 268 -68.5 404.5t-222 136.5t-222.5 -136.5t-69 -404.5z" />
    <glyph glyph-name="one" unicode="1" horiz-adv-x="841" 
d="M84 0v18q147 12 197.5 46t50.5 124v654q0 66 -22.5 95.5t-78.5 29.5q-43 0 -141 -37l-6 20l438 189h13v-951q0 -90 51 -123.5t198 -46.5v-18h-700z" />
    <glyph glyph-name="two" unicode="2" horiz-adv-x="972" 
d="M57 0v12l279 252q172 156 243.5 268.5t71.5 253.5q0 121 -62.5 189.5t-168.5 68.5q-113 0 -190.5 -71.5t-102.5 -196.5l-23 2q20 172 132 266.5t286 94.5q164 0 259.5 -79t95.5 -212q0 -129 -87.5 -238.5t-330.5 -306.5l-146 -119h613l-60 -184h-809z" />
    <glyph glyph-name="three" unicode="3" horiz-adv-x="999" 
d="M68 -92l22 10q100 -170 287 -170q141 0 229 95.5t88 254.5q0 162 -91 247t-261 85h-41v27h43q150 0 239 87t89 232q0 133 -73 211t-200 78q-121 0 -200.5 -67.5t-104.5 -186.5l-20 6q18 147 134 234.5t292 87.5q182 0 289.5 -89t107.5 -237q0 -152 -107.5 -251
t-287.5 -113v-7q188 4 304 -93t116 -267q0 -172 -123.5 -285.5t-313.5 -113.5q-143 0 -254.5 59t-162.5 166z" />
    <glyph glyph-name="four" unicode="4" horiz-adv-x="1083" 
d="M20 158v35l699 915h88v-885h250v-65h-250v-445h-205v445h-582zM100 225h502v666z" />
    <glyph glyph-name="five" unicode="5" horiz-adv-x="1013" 
d="M35 -90l28 14q78 -182 295 -182q145 0 235.5 105.5t90.5 283.5q0 164 -83 262.5t-214 98.5t-207 -72l-35 18l160 670h674l-57 -180h-598l-107 -436q90 63 242 63q223 0 337.5 -113.5t114.5 -304.5q0 -205 -141 -329.5t-354 -124.5q-283 0 -381 227z" />
    <glyph glyph-name="six" unicode="6" horiz-adv-x="1134" 
d="M90 582q0 348 210 584.5t542 236.5q123 0 209 -31l-17 -35q-68 27 -174 27q-510 0 -541 -711q101 187 330 187q186 0 300 -108.5t114 -295.5q0 -201 -133 -334t-344 -133q-223 0 -359.5 168t-136.5 445zM317 559q1 -557 267 -557q123 0 187.5 101.5t64.5 283.5
q0 184 -73 285.5t-202 101.5q-80 0 -144.5 -44t-99.5 -120v-51z" />
    <glyph glyph-name="seven" unicode="7" horiz-adv-x="931" 
d="M47 928l57 180h814l4 -8l-695 -1387h-153l710 1215h-737z" />
    <glyph glyph-name="eight" unicode="8" horiz-adv-x="1130" 
d="M72 330q0 250 350 352l-33 18q-276 137 -276 353q0 160 122.5 255t331.5 95q195 0 318 -88t123 -232q0 -111 -78 -189.5t-240 -131.5l127 -70q242 -125 242 -327q0 -172 -137.5 -284t-364.5 -112q-215 0 -350 97.5t-135 263.5zM262 340q0 -158 82 -247t225.5 -89
t218 70.5t74.5 197.5q0 180 -190 273l-226 125q-184 -86 -184 -330zM307 1143q0 -176 185 -273l174 -96q84 47 119.5 114.5t35.5 176.5q0 303 -270 303q-117 0 -180.5 -58t-63.5 -167z" />
    <glyph glyph-name="nine" unicode="9" horiz-adv-x="1134" 
d="M74 678q0 199 132 330t341 131q223 0 360 -169t137 -446q0 -358 -209.5 -599.5t-541.5 -241.5q-123 0 -209 30l14 35q68 -27 174 -27q508 0 541 728q-47 -86 -133 -134.5t-195 -48.5q-184 0 -297.5 110.5t-113.5 301.5zM299 721q0 -184 71.5 -285.5t200.5 -101.5
q162 0 244 160v53q0 559 -262 559q-123 0 -188.5 -102.5t-65.5 -282.5z" />
    <glyph glyph-name="colon" unicode=":" horiz-adv-x="456" 
d="M96 106q0 53 38 92.5t93.5 39.5t94 -39t38.5 -93q0 -55 -38 -94t-95 -39q-55 0 -93 39t-38 94zM96 913q0 53 38 92t93.5 39t94 -38.5t38.5 -92.5q0 -55 -38 -94t-95 -39q-55 0 -93 39t-38 94z" />
    <glyph glyph-name="semicolon" unicode=";" horiz-adv-x="497" 
d="M96 913q0 53 38 92t93.5 39t94 -38.5t38.5 -92.5q0 -55 -38 -94t-95 -39q-55 0 -93 39t-38 94zM100 117q0 51 33 86t90 35q66 0 112 -53.5t46 -151.5q0 -100 -49.5 -177t-188.5 -122l-8 26q164 49 164 148q0 59 -94 88q-104 31 -105 121z" />
    <glyph glyph-name="less" unicode="&#x3c;" 
d="M184 551v33l820 420v-48l-760 -389l760 -389v-47z" />
    <glyph glyph-name="equal" unicode="=" 
d="M186 449v38h818v-38h-818zM186 774v39h818v-39h-818z" />
    <glyph glyph-name="greater" unicode="&#x3e;" 
d="M184 131v47l760 389l-760 389v48l820 -420v-33z" />
    <glyph glyph-name="question" unicode="?" horiz-adv-x="913" 
d="M37 1090q29 170 140.5 277.5t301.5 107.5q170 0 276.5 -98.5t106.5 -258.5q0 -221 -262 -395q-98 -66 -136 -129.5t-38 -163.5v-37h-39v72q0 82 24.5 133t80.5 113q172 180 172 368q0 141 -74 222t-201 81q-276 0 -338 -297zM279 106q0 53 37.5 92.5t93 39.5t94.5 -39
t39 -93q0 -55 -38 -94t-95 -39q-55 0 -93 39t-38 94z" />
    <glyph glyph-name="at" unicode="@" horiz-adv-x="1644" 
d="M72 612q0 346 218 568.5t558 222.5q319 0 522 -192.5t203 -501.5q0 -233 -116 -380t-304 -147q-201 0 -225 180q-57 -166 -234 -165q-96 0 -154.5 52t-58.5 144q0 216 336 275l109 22v29q0 242 -191 242q-162 0 -209 -154l-12 2q27 113 106.5 178.5t196.5 65.5
q129 0 203 -79t74 -220v-357q0 -154 118 -153q125 0 211 135t86 332q0 289 -185 464t-476 175q-313 0 -512 -206t-199 -530q0 -338 206 -538.5t536 -200.5q354 0 512 221l10 -8q-170 -264 -547 -264q-346 0 -564 217t-218 571zM653 426q0 -76 34 -117t91 -41q68 0 107 52.5
t41 142.5v203l-68 -15q-205 -43 -205 -225z" />
    <glyph glyph-name="A" unicode="A" horiz-adv-x="1480" 
d="M16 0v14q84 14 130.5 62.5t86.5 165.5l424 1192h189l438 -1225q37 -106 72 -143t106 -52v-14h-538v14q98 14 120 64q7 17 7 41q0 47 -27 123l-98 284h-531l-98 -282q-19 -65 -19 -109q0 -39 15 -61q31 -47 131 -60v-14h-408zM412 575h497l-247 715z" />
    <glyph glyph-name="B" unicode="B" horiz-adv-x="1282" 
d="M61 0v14q90 10 121 48t31 147v1032q0 92 -31.5 130t-120.5 48v15h596q489 0 490 -340q0 -152 -113.5 -246t-304.5 -107v-8h9q216 0 346 -92q132 -94 133 -268q0 -178 -140.5 -275.5t-398.5 -97.5h-617zM440 39h191q160 0 249 86t89 246q0 340 -353 340h-176v-672z
M440 750h133q174 0 255 80.5t81 252.5q0 312 -331 312h-138v-645z" />
    <glyph glyph-name="C" unicode="C" horiz-adv-x="1327" 
d="M72 696q0 350 191.5 564.5t502.5 214.5q233 0 453 -89l-52 -485l-18 2q-25 483 -440 483q-209 0 -332 -145t-123 -391q0 -309 162 -503.5t418 -194.5q324 0 393 297l16 -5q-88 -485 -530 -485q-291 0 -466 201.5t-175 535.5z" />
    <glyph glyph-name="D" unicode="D" horiz-adv-x="1441" 
d="M61 0v14q90 10 121 48t31 147v1032q0 92 -31.5 130t-120.5 48v15h547q356 0 555 -188.5t199 -526.5q0 -344 -202 -531.5t-550 -187.5h-549zM440 39h115q291 0 423 152.5t132 515.5q0 369 -134 528.5t-421 159.5h-115v-1356z" />
    <glyph glyph-name="E" unicode="E" horiz-adv-x="1232" 
d="M61 0v14q90 10 121 48t31 147v1032q0 92 -31.5 130t-120.5 48v15h1002l41 -461h-14q-57 229 -150.5 325.5t-282.5 96.5h-217v-641h150q129 0 192.5 63.5t87.5 206.5h17v-588h-17q-25 145 -89 212t-191 67h-150v-676h213q223 0 319.5 106.5t155.5 389.5h15l-53 -535h-1029
z" />
    <glyph glyph-name="F" unicode="F" horiz-adv-x="1140" 
d="M61 0v14q88 10 119 45t33 134v1048q0 92 -31.5 130t-120.5 48v15h1002l41 -461h-14q-59 231 -169 326.5t-313 95.5h-168v-662h154q125 0 191.5 67.5t84.5 209.5h17v-588h-17q-37 276 -276 276h-154v-483q0 -111 44 -151.5t178 -49.5v-14h-601z" />
    <glyph glyph-name="G" unicode="G" horiz-adv-x="1492" 
d="M72 713q0 350 211 556t571 206q229 0 438 -80l-45 -445h-16q-10 229 -115.5 348t-296.5 119q-229 0 -359 -176t-130 -487q0 -330 141 -540t365 -210q80 0 148.5 25.5t96.5 66.5v350q0 117 -49 159t-213 61v14h633v-14q-90 -10 -122 -47t-32 -130v-383
q-207 -147 -489 -147q-332 0 -534.5 207t-202.5 547z" />
    <glyph glyph-name="H" unicode="H" horiz-adv-x="1531" 
d="M61 0v14q88 10 120 49t32 138v1032q0 98 -31.5 137t-120.5 49v15h533v-15q-90 -10 -122 -49t-32 -137v-483h652v483q0 98 -32 137t-120 49v15h530v-15q-88 -10 -119.5 -49t-31.5 -137v-1032q0 -98 31.5 -137t119.5 -50v-14h-530v14q88 10 120 49t32 138v497h-652v-497
q0 -98 32 -137t122 -50v-14h-533z" />
    <glyph glyph-name="I" unicode="I" horiz-adv-x="655" 
d="M61 0v14q90 10 121 48t31 147v1032q0 92 -31.5 130t-120.5 48v15h533v-15q-90 -10 -122 -48t-32 -130v-1032q0 -102 33 -143t121 -52v-14h-533z" />
    <glyph glyph-name="J" unicode="J" horiz-adv-x="632" 
d="M-25 -129q23 -4 60 -4q203 0 203 274v1100q0 92 -32 130t-122 48v15h532v-15q-90 -10 -121.5 -48t-31.5 -130v-1032q0 -180 -87 -274.5t-249 -94.5q-96 0 -152 23v8z" />
    <glyph glyph-name="K" unicode="K" horiz-adv-x="1439" 
d="M61 0v14q90 10 121 48t31 147v1032q0 92 -31.5 130t-120.5 48v15h533v-15q-90 -10 -122 -48t-32 -130v-1032q0 -102 33 -143t121 -52v-14h-533zM440 739l457 441q66 63 89.5 95t23.5 60q0 39 -33 59.5t-113 24.5v15h469v-15q-96 -16 -165.5 -59t-174.5 -146l-358 -350
l551 -688q74 -88 118 -120.5t117 -41.5v-14h-397z" />
    <glyph glyph-name="L" unicode="L" horiz-adv-x="1136" 
d="M61 0v14q90 10 121 48t31 147v1032q0 92 -31.5 130t-120.5 48v15h533v-15q-90 -10 -122 -48t-32 -130v-1202h123q127 0 211 27.5t140.5 95t90 157t62.5 232.5h16l-55 -551h-967z" />
    <glyph glyph-name="M" unicode="M" horiz-adv-x="1841" 
d="M41 0v14q88 12 122 62.5t42 185.5l51 940q2 26 2 49q0 83 -24 114q-30 40 -123 54v15h378l439 -1090l438 1090h369v-15q-92 -10 -123 -51q-25 -33 -25 -120q0 -22 2 -48l51 -979q6 -109 40 -152.5t120 -54.5v-14h-545v14q92 14 126 64q29 42 29 132q0 16 -1 34l-45 1034
l-522 -1298h-6l-525 1290l-53 -1006q-1 -23 -1 -43q0 -107 35 -146q42 -46 177 -61v-14h-428z" />
    <glyph glyph-name="N" unicode="N" horiz-adv-x="1509" 
d="M61 0v14q109 10 151 62.5t42 181.5v1024q-90 109 -193 137v15h373l807 -1016v776q0 117 -44 164t-161 61v15h443v-15q-102 -10 -144.5 -61t-42.5 -164v-1214h-6l-981 1239v-961q0 -129 46 -180t161 -64v-14h-451z" />
    <glyph glyph-name="O" unicode="O" horiz-adv-x="1568" 
d="M72 717q0 332 200.5 545t511.5 213q313 0 513 -213t200 -545t-200 -545t-513 -213q-311 0 -511.5 213t-200.5 545zM444.5 190.5q114.5 -178.5 340 -178.5t341 178.5t115.5 526.5q0 704 -456 704h-1q-454 0 -454 -701q0 -351 114.5 -529.5z" />
    <glyph glyph-name="P" unicode="P" 
d="M61 0v14q90 10 121 48t31 147v1032q0 92 -31.5 130t-120.5 48v15h541q250 0 395.5 -100.5t145.5 -301.5q0 -203 -145.5 -303t-395.5 -100h-162v-414q0 -111 44 -151.5t178 -49.5v-14h-601zM440 668h111q164 0 255 92t91 272q0 178 -91 270.5t-255 92.5h-111v-727z" />
    <glyph glyph-name="Q" unicode="Q" horiz-adv-x="1568" 
d="M272.5 1262q200.5 213 511.5 213q313 0 513 -213t200 -545q0 -315 -178 -522t-481 -230q333 -239 768 -239h4q250 0 395 94l10 -15q-212 -161 -577 -161q-584 0 -1080 446q-286 249 -286 624q0 335 200.5 548zM444.5 190.5q114.5 -178.5 340 -178.5t341 178.5
t115.5 526.5q0 704 -456 704h-1q-454 0 -454 -701q0 -351 114.5 -529.5z" />
    <glyph glyph-name="R" unicode="R" horiz-adv-x="1404" 
d="M61 0v14q90 10 121 48t31 147v1032q0 92 -31.5 130t-120.5 48v15h557q274 0 398.5 -87t124.5 -260q0 -162 -133.5 -257t-325.5 -95v-10h9q133 -1 231 -59q102 -60 151 -181l115 -270q78 -184 207 -199v-16h-348q-35 57 -105 219l-113 273q-57 133 -110 176t-166 43h-113
v-502q0 -102 33 -143t121 -52v-14h-533zM440 745h101q184 0 267 84t83 254q0 154 -67.5 233t-250.5 79h-133v-650z" />
    <glyph glyph-name="S" unicode="S" horiz-adv-x="1107" 
d="M74 72l39 417h14q29 -221 147.5 -348t313.5 -127q137 0 215 71t78 200q0 96 -53.5 156.5t-178.5 113.5l-239 109q-160 70 -238 167t-78 240q0 180 129 292t363 112q229 0 418 -101l-43 -397h-15q-57 442 -422 442q-135 0 -213 -62.5t-78 -170.5q0 -92 53.5 -148.5
t192.5 -119.5l262 -119q154 -70 224.5 -163t70.5 -230q0 -203 -136.5 -325t-367.5 -122q-250 0 -458 113z" />
    <glyph glyph-name="T" unicode="T" horiz-adv-x="1218" 
d="M35 952v527h10q45 -45 160 -45h809q115 0 160 45h10v-527h-15q-27 248 -110.5 341t-251.5 93h-84v-1171q0 -111 44 -151.5t177 -49.5v-14h-670v14q133 8 177.5 49t44.5 152v1171h-84q-168 0 -252 -93t-111 -341h-14z" />
    <glyph glyph-name="U" unicode="U" horiz-adv-x="1396" 
d="M16 1419v15h551v-15q-96 -12 -130 -49t-34 -137v-676q0 -242 96.5 -366.5t282.5 -124.5q379 0 379 499v625q0 115 -51 167t-168 62v15h438v-15q-90 -10 -129 -59t-39 -162v-670q0 -276 -124.5 -422.5t-376.5 -146.5q-260 0 -400.5 148.5t-140.5 433.5v700q0 92 -32 130
t-122 48z" />
    <glyph glyph-name="V" unicode="V" horiz-adv-x="1433" 
d="M10 1419v15h582v-15q-158 -10 -158 -110q0 -43 25 -105l352 -891l328 858q30 72 30 122q0 116 -151 126v15h405v-15q-82 -8 -129 -59t-100 -184l-471 -1196h-10l-498 1232q-43 109 -85 154t-120 53z" />
    <glyph glyph-name="W" unicode="W" horiz-adv-x="1988" 
d="M10 1419v15h543v-15q-129 -12 -129 -106q0 -57 29 -131l288 -822l224 639l-82 222q-37 100 -69 139t-97 59v15h534v-15q-141 -10 -141 -112q0 -37 18 -88l308 -854l282 817q25 63 25 116q0 113 -146 121v15h381v-15q-76 -8 -117.5 -58t-84.5 -173l-426 -1208h-9l-350 946
l-336 -946h-8l-450 1224q-41 117 -79 162t-108 53z" />
    <glyph glyph-name="X" unicode="X" horiz-adv-x="1511" 
d="M16 0v14q90 14 162 65.5t160 170.5l326 430l-367 541q-74 109 -129 148.5t-133 49.5v15h606v-15q-129 -8 -129 -84q0 -43 100 -192l213 -316l240 312q96 123 96 182q0 88 -153 98v15h450v-15q-76 -10 -140.5 -61t-162.5 -180l-301 -394l369 -546q78 -117 136 -165
t136 -59v-14h-600v14q121 18 121 95q0 51 -94 192l-226 332l-270 -357q-84 -109 -84 -159q0 -84 145 -103v-14h-471z" />
    <glyph glyph-name="Y" unicode="Y" horiz-adv-x="1327" 
d="M16 1419v15h553v-15q-137 -12 -137 -102q0 -39 37 -107l274 -508l267 484q43 76 43 127q0 94 -133 106v15h389v-15q-127 -8 -230 -196l-307 -564v-481q6 -86 52 -119.5t169 -44.5v-14h-669v14q133 8 177 49t44 152v436l-314 576q-57 106 -102 147t-113 45z" />
    <glyph glyph-name="Z" unicode="Z" horiz-adv-x="1220" 
d="M51 0v10l840 1383h-250q-131 0 -218 -29t-143.5 -94.5t-88 -143t-64.5 -211.5h-14l55 519h991v-11l-835 -1382h284q135 0 229.5 32.5t155 101.5t94 151t60.5 204h14l-57 -530h-1053z" />
    <glyph glyph-name="bracketleft" unicode="[" horiz-adv-x="499" 
d="M152 -254v1749h327v-10q-92 -6 -133 -29.5t-41 -93.5v-1483q0 -70 41 -93.5t133 -29.5v-10h-327z" />
    <glyph glyph-name="backslash" unicode="\" horiz-adv-x="681" 
d="M16 1561h47l601 -1684h-48z" />
    <glyph glyph-name="bracketright" unicode="]" horiz-adv-x="499" 
d="M20 -244q92 6 133.5 30t41.5 93v1483q0 70 -41.5 93.5t-133.5 29.5v10h328v-1749h-328v10z" />
    <glyph glyph-name="asciicircum" unicode="^" horiz-adv-x="700" 
d="M55 942l279 502h33l278 -502h-49l-246 451l-246 -451h-49z" />
    <glyph glyph-name="underscore" unicode="_" horiz-adv-x="1056" 
d="M0 -35h1057v-53h-1057v53z" />
    <glyph glyph-name="grave" unicode="`" horiz-adv-x="1228" 
d="M145 1423v11h203l111 -291h-43z" />
    <glyph glyph-name="a" unicode="a" horiz-adv-x="1083" 
d="M80 217q0 258 362 332l211 41v53q0 295 -245 295q-109 0 -182.5 -62.5t-100.5 -181.5l-14 2q20 166 124.5 263.5t266.5 97.5q176 0 265 -103.5t89 -294.5v-471q0 -55 21.5 -86.5t58.5 -31.5h1q79 0 114 116l16 -2q-51 -215 -238 -215q-78 0 -122.5 47t-49.5 129l-2 31
q-18 -80 -99 -143.5t-198 -63.5q-131 0 -204.5 71t-73.5 177zM281 276q0 -88 44 -148t132 -60q143 0 196 139v346l-141 -27q-76 -14 -125 -42.5t-70.5 -66.5t-28.5 -69t-7 -72z" />
    <glyph glyph-name="b" unicode="b" horiz-adv-x="1132" 
d="M16 1384v17l346 94v-641q35 86 128.5 144.5t197.5 58.5q168 0 271.5 -131t103.5 -355q0 -270 -152.5 -436t-396.5 -166q-197 0 -354 90v1198q0 84 -29 109q-23 20 -80 20q-16 0 -35 -2zM362 104q58 -94 189 -94q135 0 214 127t79 363q0 454 -274 454h-1q-66 0 -124 -34.5
t-83 -102.5v-713z" />
    <glyph glyph-name="c" unicode="c" horiz-adv-x="964" 
d="M66 489q0 264 134 416t357 152q180 0 311 -66l-47 -356h-14q-16 342 -281 342q-147 0 -229 -101.5t-82 -289.5q0 -180 103.5 -312.5t275.5 -132.5q238 0 287 215l16 -4q-16 -176 -120.5 -279.5t-264.5 -103.5q-201 0 -323.5 142.5t-122.5 377.5z" />
    <glyph glyph-name="d" unicode="d" horiz-adv-x="1157" 
d="M68 477q0 264 144 422t355 158q106 0 203 -56v271q0 76 -41 98q-22 11 -64 11q-37 0 -90 -9v14l398 109v-1333q0 -76 32.5 -106.5t110.5 -39.5v-14h-346v170q-33 -84 -112.5 -143.5t-190.5 -59.5q-174 0 -286.5 138.5t-112.5 369.5zM289 532q0 -207 82 -328.5t209 -121.5
q139 0 190 123v669q-18 59 -70.5 100.5t-126.5 41.5q-131 0 -207.5 -127t-76.5 -357z" />
    <glyph glyph-name="e" unicode="e" horiz-adv-x="972" 
d="M66 495.5q0 249.5 119.5 405.5t330.5 156q172 0 276 -119q99 -113 100 -302q0 -11 -1 -22h-674q4 -221 105.5 -347t267.5 -126q104 0 180 47.5t119 176.5l14 -3q-35 -197 -140.5 -295t-256.5 -98q-190 0 -315 138.5t-125 388zM217 653h469q1 16 1 32q1 155 -55 237
q-60 90 -161 90q-111 0 -180.5 -97.5t-73.5 -261.5z" />
    <glyph glyph-name="f" unicode="f" horiz-adv-x="657" 
d="M51 0v14q82 10 113 34t31 81v866h-136v31h136v92q-1 357 329 357q119 0 209 -52l-47 -219l-12 2q-8 90 -61.5 150.5t-141.5 60.5q-86 0 -129 -58.5t-43 -129.5q0 -129 84 -203h215v-31h-201v-866q0 -61 36 -83.5t149 -31.5v-14h-531z" />
    <glyph glyph-name="g" unicode="g" horiz-adv-x="1036" 
d="M41 -184q0 160 205 219q-133 43 -133 182q0 74 47 130t133 77q-174 94 -174 293q0 150 107.5 245t285.5 95q100 0 176 -31h293v-31h-231q155 -93 155 -276q0 -154 -107.5 -249t-285.5 -95q-104 0 -190 35q-113 -18 -113 -99q0 -84 151 -96l355 -25q282 -20 282 -235
q0 -170 -134 -282.5t-384 -112.5q-207 0 -322.5 69.5t-115.5 186.5zM184 -129q0 -113 99.5 -179.5t265.5 -66.5q176 0 271 66.5t95 158.5q0 74 -44 103t-148 37l-406 30l-41 7q-92 -55 -92 -156zM317 711q0 -152 53.5 -231t141.5 -79t141.5 80t53.5 230q0 154 -53.5 234.5
t-141.5 82.5h-4q-85 0 -138 -80q-53 -82 -53 -237z" />
    <glyph glyph-name="h" unicode="h" horiz-adv-x="1191" 
d="M41 0v14q82 10 112.5 34t30.5 81v1128q0 84 -28 109q-22 20 -80 20q-16 0 -35 -2v17l346 94v-661q27 96 114 159.5t206 63.5q150 0 225.5 -87t75.5 -239v-602q0 -57 30.5 -80.5t112.5 -34.5v-14h-479v14q78 10 104.5 31t26.5 78v582q0 258 -203 258q-154 0 -213 -158
v-682q0 -57 26.5 -77.5t104.5 -31.5v-14h-477z" />
    <glyph glyph-name="i" unicode="i" horiz-adv-x="581" 
d="M51 0v14q82 10 113 34t31 81v676q0 87 -28 111q-24 20 -92 21q-12 0 -24 -1v14l346 92v-913q0 -57 31 -80.5t113 -34.5v-14h-490zM156 1309q0 55 36.5 92t92 37t93.5 -37t38 -92.5t-38 -92t-93.5 -36.5t-92 37.5t-36.5 91.5z" />
    <glyph glyph-name="j" unicode="j" horiz-adv-x="538" 
d="M-53 -412q29 -4 47 -4q184 0 184 271v950q0 88 -28 111q-25 21 -91 21q-11 0 -24 -1v14l346 92v-1140q0 -164 -73.5 -253t-223.5 -89q-82 0 -137 22v6zM137 1309q0 55 37 92t92 37q57 0 94 -37t37 -92.5t-37 -92t-94 -36.5q-55 0 -92 37.5t-37 91.5z" />
    <glyph glyph-name="k" unicode="k" horiz-adv-x="1171" 
d="M41 0v14q82 10 112.5 34t30.5 81v1128q0 84 -28 109q-22 20 -80 20q-16 0 -35 -2v17l346 94v-1372q0 -57 29.5 -77.5t113.5 -31.5v-14h-489zM397 543l328 264q102 80 102 135q0 63 -114 70v14h377v-14q-111 -33 -248 -150l-264 -221l378 -475q68 -80 112 -113t93 -41v-12
h-330z" />
    <glyph glyph-name="l" unicode="l" horiz-adv-x="571" 
d="M41 0v14q82 10 112.5 34t30.5 81v1128q0 84 -28 109q-22 20 -80 20q-16 0 -35 -2v17l346 94v-1366q0 -57 31 -80.5t112 -34.5v-14h-489z" />
    <glyph glyph-name="m" unicode="m" horiz-adv-x="1736" 
d="M51 0v14q82 10 113 34t31 81v682q0 89 -28 113q-22 20 -84 19q-15 0 -32 -1v14l346 93v-197q29 92 107 148.5t184 56.5q227 0 275 -211q37 96 114.5 153.5t188.5 57.5q143 0 214.5 -88t71.5 -236v-604q0 -57 31 -80.5t113 -34.5v-14h-473v14q74 8 99.5 24.5t27.5 61.5
v609q0 256 -187 256q-139 0 -194 -154q6 -37 6 -78v-610q0 -57 26.5 -77.5t104.5 -31.5v-14h-465v14q78 10 104.5 31t26.5 78v586q0 256 -186 256q-135 0 -189 -146v-696q0 -57 27 -77.5t104 -31.5v-14h-477z" />
    <glyph glyph-name="n" unicode="n" horiz-adv-x="1202" 
d="M51 0v14q82 10 113 34t31 81v682q0 89 -28 113q-22 20 -84 19q-15 0 -32 -1v14l346 93v-218q27 96 114 161t206 65q150 0 225.5 -88t75.5 -242v-598q0 -57 30.5 -80.5t112.5 -34.5v-14h-479v14q78 10 104.5 31t26.5 78v579q0 262 -199 263q-158 0 -217 -160v-682
q0 -57 27 -77.5t104 -31.5v-14h-477z" />
    <glyph glyph-name="o" unicode="o" horiz-adv-x="1124" 
d="M66 512q0 240 135 392.5t362 152.5q225 0 360.5 -152.5t135.5 -392.5q0 -238 -135.5 -390.5t-360.5 -152.5q-227 0 -362 152.5t-135 390.5zM285 512q-1 -496 278 -496q276 0 277 496q0 498 -277 498q-279 0 -278 -498z" />
    <glyph glyph-name="p" unicode="p" horiz-adv-x="1146" 
d="M31 -395q82 10 112.5 33.5t30.5 80.5v1092q0 88 -28 113q-22 19 -83 19q-15 0 -32 -1v14l346 93v-187q39 88 121 141.5t190 53.5q166 0 277.5 -136.5t111.5 -359.5q0 -258 -138 -425t-335 -167q-125 0 -227 78v-328q0 -61 36 -83.5t148 -30.5v-15h-530v15zM377 119
q25 -41 76 -76t127 -35q121 0 199.5 130t78.5 362q0 207 -78 329.5t-205 122.5q-137 0 -198 -114v-719z" />
    <glyph glyph-name="q" unicode="q" horiz-adv-x="1140" 
d="M68 461q0 274 154.5 435t398.5 161q184 0 352 -96v-1242q0 -57 30.5 -80.5t112.5 -33.5v-15h-530v15q113 10 148.5 31.5t35.5 82.5v445q-33 -84 -118 -139.5t-193 -55.5q-168 0 -279.5 140.5t-111.5 351.5zM289 565q0 -233 79 -358t210 -125q139 0 192 117v712
q-61 109 -190 109t-210 -125t-81 -330z" />
    <glyph glyph-name="r" unicode="r" horiz-adv-x="747" 
d="M51 0v14q82 10 113 34t31 81v674q0 91 -29 117q-25 23 -93 23q-10 0 -22 -1v14l338 93v-406h8q27 414 310 414h14v-207h-10q-33 14 -90 14q-109 0 -166.5 -83t-57.5 -283v-369q0 -61 36 -83.5t149 -31.5v-14h-531z" />
    <glyph glyph-name="s" unicode="s" horiz-adv-x="874" 
d="M74 63l37 310h16q16 -158 110.5 -253t227.5 -95q100 0 154.5 50t54.5 128q0 119 -168 180l-221 90q-193 80 -193 270q0 135 99.5 224.5t279.5 89.5q184 0 303 -70l-37 -278h-18q-43 297 -297 297q-100 0 -149.5 -44t-49.5 -116q0 -117 148 -172l219 -90
q109 -43 161 -106.5t52 -166.5q0 -152 -105.5 -247t-281.5 -95q-195 0 -342 94z" />
    <glyph glyph-name="t" unicode="t" horiz-adv-x="690" 
d="M31 993v15q244 68 334 327h10v-311h231v-31h-231v-749q0 -172 121 -172q112 0 161 137l15 -4q-72 -236 -281 -236q-106 0 -162.5 63.5t-56.5 176.5v784h-141z" />
    <glyph glyph-name="u" unicode="u" horiz-adv-x="1161" 
d="M25 973v14l346 62v-717q0 -122 54 -190q52 -66 147 -66h6q63 2 115 38t79 95v633q0 90 -26 114q-20 20 -77 20q-14 0 -30 -1v14l338 60v-889q0 -76 32.5 -106.5t110.5 -39.5v-14h-348v178q-35 -88 -116 -148.5t-185 -60.5q-145 0 -225 85t-80 253v535q0 88 -28 112
q-22 20 -81 20q-15 0 -32 -1z" />
    <glyph glyph-name="v" unicode="v" horiz-adv-x="1079" 
d="M10 1010v16h490v-16q-133 -6 -133 -95q0 -39 24 -98l232 -547l229 537q29 74 29 108q0 88 -136 95v16h324v-16q-57 -14 -89 -51t-73 -134l-362 -845h-13l-360 843q-39 94 -75 136t-87 51z" />
    <glyph glyph-name="w" unicode="w" horiz-adv-x="1652" 
d="M10 1010v16h471v-16q-57 -6 -81.5 -27.5t-24.5 -64.5q0 -29 26 -103l215 -547l195 480l-39 92q-66 160 -149 170v16h475v-16q-127 -6 -127 -92q0 -37 24 -101l217 -555l218 547q26 66 26 106q0 89 -127 95v16h313v-16q-53 -14 -85.5 -52t-69.5 -133l-344 -845h-10
l-297 710l-301 -710h-11l-344 843q-70 176 -170 187z" />
    <glyph glyph-name="x" unicode="x" horiz-adv-x="1122" 
d="M20 0v14q113 18 207 144l248 327l-258 383q-47 72 -89 104t-97 38v16h514v-14q-125 -12 -125 -72q0 -37 31 -84l163 -242l146 201q59 78 59 115q0 74 -129 82v14h371v-16q-115 -12 -215 -150l-207 -280l285 -422q82 -125 182 -144v-14h-514v14q125 6 125 72q0 39 -29 82
l-188 283l-183 -246q-51 -68 -51 -105q0 -76 127 -86v-14h-373z" />
    <glyph glyph-name="y" unicode="y" horiz-adv-x="1081" 
d="M-2 -401l35 198h10q63 -57 184 -57q205 0 285 172l16 37l-346 872q-68 176 -170 189v16h494v-16q-72 -6 -100.5 -27.5t-28.5 -64.5q0 -37 24 -105l220 -600l237 584q23 57 23 100q0 100 -123 113v16h313v-16q-57 -16 -90 -56.5t-68 -136.5l-356 -897
q-74 -209 -172 -284.5t-223 -75.5q-94 0 -164 39z" />
    <glyph glyph-name="z" unicode="z" horiz-adv-x="960" 
d="M45 0v4l633 989h-172q-174 0 -265 -90t-139 -274h-10l58 397h768v-4l-635 -989h149q203 0 302.5 85t156.5 316h10l-49 -434h-807z" />
    <glyph glyph-name="braceleft" unicode="{" horiz-adv-x="587" 
d="M76 627v12q123 66 123 221v287q0 166 97 266t265 109v-11q-201 -37 -201 -333v-273q0 -141 -124 -221q125 -80 124 -221v-400q0 -293 201 -333v-11q-168 8 -265 108.5t-97 266.5v328q0 137 -123 205z" />
    <glyph glyph-name="bar" unicode="|" horiz-adv-x="356" 
d="M152 -254v1749h53v-1749h-53z" />
    <glyph glyph-name="braceright" unicode="}" horiz-adv-x="587" 
d="M27 -270q201 39 200 333v347q0 70 28 122t45 65t52 34q-35 20 -52 33.5t-45 65.5t-28 122v326q0 293 -200 333v11q176 -8 269 -111.5t93 -263.5v-254q0 -137 123 -205v-12q-123 -68 -123 -221v-361q0 -160 -93 -263.5t-269 -111.5v11z" />
    <glyph glyph-name="asciitilde" unicode="~" horiz-adv-x="1193" 
d="M82 604q59 180 285 180q90 0 244.5 -62.5t279.5 -62.5q145 0 209 113l10 -2q-58 -180 -285 -180q-125 0 -279.5 62.5t-244.5 62.5q-141 0 -207 -115z" />
    <glyph glyph-name="uni007F" horiz-adv-x="1228" 
 />
    <glyph glyph-name="uni00A0" unicode="&#xa0;" horiz-adv-x="452" 
 />
    <glyph glyph-name="exclamdown" unicode="&#xa1;" horiz-adv-x="563" 
d="M150 928q0 55 38 94t93 39q57 0 95 -39t38 -94q0 -53 -39 -92t-94.5 -39t-93 38.5t-37.5 92.5zM154 -303q0 31 4 55l110 881h25l113 -881q4 -25 4 -55q0 -70 -36 -103.5t-93 -33.5q-55 0 -91 34.5t-36 102.5z" />
    <glyph glyph-name="cent" unicode="&#xa2;" horiz-adv-x="1032" 
d="M66 526q0 272 128 435t349 178v170h47v-170q199 -4 344 -70l-49 -364h-17q-18 336 -278 364v-926q14 -2 45 -2q254 0 307 228l16 -4q-14 -172 -113.5 -277.5t-254.5 -118.5v-174h-47v172q-215 4 -346 156.5t-131 402.5zM219 651q0 -193 89 -329t235 -170v919h-2
q-154 0 -238 -109.5t-84 -310.5z" />
    <glyph glyph-name="sterling" unicode="&#xa3;" horiz-adv-x="1112" 
d="M72 -18q123 123 166 218t43 195q0 133 -48 246h-143v37h129l-10 22q-10 25 -11 28t-10.5 24.5t-11.5 27.5t-8 26.5t-8 31t-6 30t-6.5 35t-3.5 34.5t-1 40q0 193 123 309.5t324 116.5q233 0 391 -96l-47 -351h-12q-37 203 -119 303.5t-238 100.5q-117 0 -184.5 -65.5
t-67.5 -176.5q0 -109 63.5 -251t74.5 -189h366v-37h-360q4 -41 4 -63q0 -203 -187 -418l11 -8q78 61 170 61q49 0 156.5 -33t189.5 -33q100 0 145.5 57.5t57.5 192.5h14q-10 -428 -305 -428q-61 0 -180 35t-201 35q-135 0 -238 -70z" />
    <glyph glyph-name="currency" unicode="&#xa4;" horiz-adv-x="1212" 
d="M174 307l131 131q-104 115 -104 279t104 278l-131 131l23 23l129 -129q115 109 280.5 108.5t280.5 -108.5l129 129l22 -23l-131 -131q104 -115 104.5 -278.5t-104.5 -278.5l131 -131l-22 -22l-129 129q-115 -109 -281 -109t-280 109l-129 -129zM238 717
q0 -160 103 -269.5t265 -109.5t265.5 109.5t103.5 269.5t-103.5 269.5t-265.5 109.5t-265 -109.5t-103 -269.5z" />
    <glyph glyph-name="yen" unicode="&#xa5;" horiz-adv-x="1259" 
d="M16 1358v14h541v-14q-127 -12 -127 -103q0 -35 35 -106l246 -487l233 462q45 82 45 127q0 94 -125 107v14h377v-14q-133 -10 -227 -197l-269 -528h293v-41h-299v-146h299v-40h-299v-191q0 -111 44 -151.5t178 -49.5v-14h-670v14q133 8 177 49t44 152v191h-299v40h299v146
h-299v41h287l-269 532q-51 104 -98 146.5t-117 46.5z" />
    <glyph glyph-name="brokenbar" unicode="&#xa6;" horiz-adv-x="356" 
d="M152 -254v803h53v-803h-53zM152 754v741h53v-741h-53z" />
    <glyph glyph-name="section" unicode="&#xa7;" horiz-adv-x="1019" 
d="M74 -344l30 360h13q23 -190 131 -299.5t280 -109.5q125 0 195 61.5t70 171.5q0 84 -49.5 136.5t-163.5 103.5l-209 94q-139 63 -210 146t-71 208q0 213 199 306q-166 104 -166 292q0 154 111.5 251.5t312.5 97.5q205 0 375 -89l-37 -344h-11q-49 385 -380 385
q-121 0 -186.5 -54t-65.5 -150q0 -80 48 -128t173 -104l227 -104q262 -115 262 -355q0 -217 -170 -319q147 -104 148 -274q0 -174 -119 -276.5t-338 -102.5t-399 96zM205 627q0 -82 47 -133.5t166 -104.5l246 -108q53 -25 86 -45q88 63 88 198q0 88 -47.5 143.5
t-159.5 102.5l-228 94q-57 25 -81 39q-117 -53 -117 -186z" />
    <glyph glyph-name="dieresis" unicode="&#xa8;" horiz-adv-x="1228" 
d="M102 1315q0 51 33 83t82 32t82 -32t33 -83t-33 -83t-82 -32t-82 32t-33 83zM461 1315q0 51 32.5 83t82 32t82 -32t32.5 -83t-32.5 -83t-82 -32t-82 32t-32.5 83z" />
    <glyph glyph-name="copyright" unicode="&#xa9;" horiz-adv-x="1742" 
d="M72 716.5q0 356.5 222 578t576.5 221.5t576.5 -221.5t222 -578t-222 -577.5t-576.5 -221t-576.5 221t-222 577.5zM141 717q0 -332 204 -538t527.5 -206t527.5 206t204 538t-204 537.5t-527.5 205.5t-527.5 -205.5t-204 -537.5zM520 719q0 190 106.5 309t280.5 119
q133 0 252 -51l-29 -267h-10q-35 262 -243 263q-109 0 -174.5 -75t-65.5 -204q0 -166 89 -272.5t228 -106.5q170 0 209 150l11 -4q-54 -273 -300 -273q-160 0 -257 112.5t-97 299.5z" />
    <glyph glyph-name="ordfeminine" unicode="&#xaa;" horiz-adv-x="923" 
d="M109 825q0 92 69.5 152.5t196.5 83.5l147 29v34q0 199 -174 199q-166 0 -205 -164l-12 2q16 119 94 187.5t199 68.5q133 0 199.5 -74.5t66.5 -212.5v-315q0 -82 60 -82q56 0 81 84l11 -2q-35 -164 -189 -164q-55 0 -89 34t-38 89l-2 19q-14 -57 -71.5 -99.5t-143.5 -42.5
q-94 0 -147 50.5t-53 123.5zM270 872q0 -59 32 -100t91 -41q94 0 129 84v248l-92 -19q-160 -29 -160 -172z" />
    <glyph glyph-name="guillemotleft" unicode="&#xab;" horiz-adv-x="1021" 
d="M111 555v10l421 412l11 -8l-256 -408l256 -409l-11 -7zM479 555v10l422 412l10 -8l-256 -408l256 -409l-10 -7z" />
    <glyph glyph-name="logicalnot" unicode="&#xac;" 
d="M186 702v41h815v-389h-43v348h-772z" />
    <glyph glyph-name="uni00AD" unicode="&#xad;" horiz-adv-x="753" 
d="M82 588v76h588v-76h-588z" />
    <glyph glyph-name="registered" unicode="&#xae;" horiz-adv-x="1163" 
d="M96 891q0 211 135.5 352t350.5 141t350 -141t135 -352t-135 -352.5t-350 -141.5t-350.5 141.5t-135.5 352.5zM156 890.5q0 -188.5 116.5 -316.5t309 -128t309.5 128t117 316.5t-117 316.5t-309.5 128t-309 -128t-116.5 -316.5zM371 625v6q33 4 45 19.5t12 54.5v399
q0 35 -12.5 50t-44.5 17v7h207q195 0 194 -134q0 -66 -49 -101.5t-121 -35.5v-2q111 0 146 -92l38 -104q29 -70 62 -78v-6h-115q-23 41 -39 84l-39 106q-20 49 -39.5 65.5t-62.5 16.5h-39v-192q0 -37 12.5 -54.5t42.5 -19.5v-6h-198zM514 918h35q129 0 129 124
q0 59 -26.5 87t-90.5 28h-47v-239z" />
    <glyph glyph-name="macron" unicode="&#xaf;" horiz-adv-x="1228" 
d="M102 1245v62h580v-62h-580z" />
    <glyph glyph-name="degree" unicode="&#xb0;" horiz-adv-x="632" 
d="M96 1268q0 94 65.5 156.5t156 62.5t155 -62.5t64.5 -156.5t-64.5 -156.5t-155 -62.5t-156 62.5t-65.5 156.5zM164 1267.5q0 -71.5 45 -114.5t108.5 -43t107.5 43t44 114.5t-44 114.5t-107.5 43t-108.5 -43t-45 -114.5z" />
    <glyph glyph-name="plusminus" unicode="&#xb1;" 
d="M180 0v39h819v-39h-819zM180 612v39h389v387h43v-387h387v-39h-387v-387h-43v387h-389z" />
    <glyph glyph-name="uni00B2" unicode="&#xb2;" horiz-adv-x="897" 
d="M102 672v12l174 166q176 158 242 264.5t66 235.5q0 98 -50.5 155.5t-144.5 57.5q-92 0 -156.5 -57.5t-76.5 -168.5l-17 2q6 137 89 226.5t241 89.5q139 0 217 -76t78 -188q-2 -104 -78 -205t-285 -262l-127 -107h334q80 0 120 24.5t63 76.5h10l-82 -246h-617z" />
    <glyph glyph-name="uni00B3" unicode="&#xb3;" horiz-adv-x="849" 
d="M111 809l16 8q66 -109 205 -108q96 0 158.5 59t62.5 154q0 236 -242 235h-30v19h30q109 0 174.5 63.5t65.5 167.5q0 86 -51 137t-144 51q-158 0 -211 -161l-16 4q20 104 103 160.5t208 56.5q133 0 211 -60.5t78 -158.5q0 -106 -79 -179t-210 -86v-6q133 2 215 -65.5
t82 -181.5q0 -113 -86 -190t-231 -77q-100 0 -185 41t-124 117z" />
    <glyph glyph-name="acute" unicode="&#xb4;" horiz-adv-x="1228" 
d="M102 1143l111 291h203v-11l-271 -280h-43z" />
    <glyph glyph-name="mu" unicode="&#xb5;" horiz-adv-x="1161" 
d="M25 973v14l346 62v-717q0 -123 54 -190.5t153 -65.5q63 2 115 38t79 95v633q0 90 -25.5 114.5t-107.5 18.5v14l338 60v-889q0 -76 32.5 -106.5t110.5 -39.5v-14h-348v178q-35 -88 -116 -148.5t-185 -60.5q-209 0 -274 172v-141q0 -141 58 -213t194 -84v-10h-283v1149
q0 88 -27.5 112.5t-113.5 18.5z" />
    <glyph glyph-name="paragraph" unicode="&#xb6;" horiz-adv-x="1064" 
d="M45 1065q0 174 135 271.5t344 97.5h520v-15q-92 -8 -122.5 -37.5t-30.5 -115.5v-1532h-47v1665h-273v-1665h-47v962q-209 0 -344 97.5t-135 271.5z" />
    <glyph glyph-name="periodcentered" unicode="&#xb7;" horiz-adv-x="456" 
d="M96 717q0 53 38 92t93.5 39t94 -39t38.5 -92q0 -55 -38 -94t-95 -39q-55 0 -93 39t-38 94z" />
    <glyph glyph-name="cedilla" unicode="&#xb8;" horiz-adv-x="1228" 
d="M102 -313l17 8q29 -70 102 -70q43 0 72 29t29 78q0 45 -25 70.5t-63.5 25.5t-63.5 -23l-18 13l108 182h35l-86 -133q25 18 67 18q63 0 107.5 -41.5t44.5 -113.5q0 -74 -48 -122t-120 -48q-61 0 -103 34.5t-55 92.5z" />
    <glyph glyph-name="uni00B9" unicode="&#xb9;" horiz-adv-x="747" 
d="M121 1520l336 135h10v-867q0 -55 39 -78.5t139 -29.5v-8h-522v8q100 8 138 30.5t38 77.5v670q0 76 -68 76q-31 0 -106 -25z" />
    <glyph glyph-name="ordmasculine" unicode="&#xba;" horiz-adv-x="944" 
d="M102 1034q0 168 101.5 275.5t267.5 107.5q168 0 269.5 -107.5t101.5 -275.5t-101.5 -275.5t-269.5 -107.5q-166 0 -267.5 107.5t-101.5 275.5zM283 1034q0 -348 188 -348q190 0 191 348q0 346 -191 346q-188 0 -188 -346z" />
    <glyph glyph-name="guillemotright" unicode="&#xbb;" horiz-adv-x="1021" 
d="M111 152l256 409l-256 408l10 8l422 -412v-10l-422 -410zM479 152l256 409l-256 408l10 8l422 -412v-10l-422 -410z" />
    <glyph glyph-name="onequarter" unicode="&#xbc;" horiz-adv-x="1581" 
d="M109 1333l288 119h11v-737q0 -49 32.5 -69.5t110.5 -27.5v-8h-440v8q82 8 112.5 28t30.5 69v561q0 68 -59 67q-23 0 -82 -20zM248 -82l878 1479h64l-875 -1479h-67zM864 258v29l424 536h66v-520h149v-45h-147v-129q0 -57 19.5 -85t68.5 -36v-8h-369v8q74 6 100.5 33
t26.5 90v127h-338zM907 303h295v375z" />
    <glyph glyph-name="onehalf" unicode="&#xbd;" horiz-adv-x="1558" 
d="M109 1333l288 119h11v-737q0 -49 32.5 -69.5t110.5 -27.5v-8h-440v8q82 8 112.5 28t30.5 69v561q0 68 -59 67q-23 0 -82 -20zM248 -82l878 1479h64l-875 -1479h-67zM887 0v10l143 150q139 131 192.5 220t53.5 198q0 82 -40 130t-116 48q-74 0 -127 -47t-65 -142h-13
q4 117 74 196t203 79q117 0 181.5 -64.5t62.5 -161.5q-2 -92 -65.5 -179t-235.5 -220l-97 -84h273q68 0 99.5 20.5t49.5 63.5h8l-69 -217h-512z" />
    <glyph glyph-name="threequarters" unicode="&#xbe;" horiz-adv-x="1660" 
d="M102 729l15 6q53 -90 162 -90q78 0 129 51.5t51 130.5q0 199 -193 199h-24v16h26q84 0 138.5 54.5t54.5 140.5q0 74 -42 117t-114 43q-127 0 -174 -135l-12 4q16 88 85.5 137t174.5 49q111 0 176.5 -51t65.5 -137q0 -90 -64.5 -151.5t-171.5 -74.5v-4q109 0 175.5 -57.5
t66.5 -153.5q0 -98 -73 -164.5t-194 -66.5q-82 0 -152.5 36t-105.5 101zM328 -82l878 1479h64l-875 -1479h-67zM944 258v29l424 536h66v-520h149v-45h-147v-129q0 -57 19.5 -85t68.5 -36v-8h-369v8q74 6 100.5 33t26.5 90v127h-338zM987 303h295v375z" />
    <glyph glyph-name="questiondown" unicode="&#xbf;" horiz-adv-x="827" 
d="M55 -98q0 236 260 409q98 66 136 129.5t38 163.5v39h37l-2 -74q-2 -84 -23.5 -134t-72.5 -105q-82 -94 -128 -182.5t-46 -190.5q0 -143 73.5 -223t202.5 -80q244 0 301 211l13 -2q-25 -133 -128.5 -218t-279.5 -85q-168 0 -274.5 96t-106.5 246zM375 930q0 55 38 94
t95 39q55 0 93 -39t38 -94q0 -53 -38 -92t-93 -39t-94 39t-39 92z" />
    <glyph glyph-name="Agrave" unicode="&#xc0;" horiz-adv-x="1480" 
d="M16 0v14q84 14 130.5 62.5t86.5 165.5l424 1192h189l438 -1225q37 -106 72 -143t106 -52v-14h-538v14q98 14 119.5 63.5t-19.5 164.5l-98 284h-531l-98 -282q-35 -123 -4 -170t131 -60v-14h-408zM408 1749v12h200l146 -237h-19zM412 575h497l-247 715z" />
    <glyph glyph-name="Aacute" unicode="&#xc1;" horiz-adv-x="1480" 
d="M16 0v14q84 14 130.5 62.5t86.5 165.5l424 1192h189l438 -1225q37 -106 72 -143t106 -52v-14h-538v14q98 14 119.5 63.5t-19.5 164.5l-98 284h-531l-98 -282q-35 -123 -4 -170t131 -60v-14h-408zM412 575h497l-247 715zM750 1524l143 237h201v-12l-328 -225h-16z" />
    <glyph glyph-name="Acircumflex" unicode="&#xc2;" horiz-adv-x="1480" 
d="M16 0v14q84 14 130.5 62.5t86.5 165.5l424 1192h189l438 -1225q37 -106 72 -143t106 -52v-14h-538v14q98 14 119.5 63.5t-19.5 164.5l-98 284h-531l-98 -282q-35 -123 -4 -170t131 -60v-14h-408zM412 575h497l-247 715zM494 1501l245 260h25l246 -260h-19l-239 148
l-240 -148h-18z" />
    <glyph glyph-name="Atilde" unicode="&#xc3;" horiz-adv-x="1480" 
d="M16 0v14q84 14 130.5 62.5t86.5 165.5l424 1192h189l438 -1225q37 -106 72 -143t106 -52v-14h-538v14q98 14 119.5 63.5t-19.5 164.5l-98 284h-531l-98 -282q-35 -123 -4 -170t131 -60v-14h-408zM412 575h497l-247 715zM469 1546q8 100 59.5 151.5t128.5 51.5
q59 0 136 -43t127 -43q111 0 139 98h10q-8 -100 -59.5 -151t-128.5 -51q-59 0 -136.5 43t-126.5 43q-111 0 -137 -99h-12z" />
    <glyph glyph-name="Adieresis" unicode="&#xc4;" horiz-adv-x="1480" 
d="M16 0v14q84 14 130.5 62.5t86.5 165.5l424 1192h189l438 -1225q37 -106 72 -143t106 -52v-14h-538v14q98 14 119.5 63.5t-19.5 164.5l-98 284h-531l-98 -282q-35 -123 -4 -170t131 -60v-14h-408zM412 575h497l-247 715zM424 1665q0 47 31.5 78t77 31t77 -31t31.5 -78
t-31.5 -79t-77 -32t-77 32t-31.5 79zM862 1665q0 47 32 78t79 31t77.5 -31t30.5 -78t-31.5 -79t-76.5 -32q-47 0 -79 32t-32 79z" />
    <glyph glyph-name="Aring" unicode="&#xc5;" horiz-adv-x="1480" 
d="M16 0v14q84 14 130.5 62.5t86.5 165.5l424 1192h189l438 -1225q37 -106 72 -143t106 -52v-14h-538v14q98 14 119.5 63.5t-19.5 164.5l-98 284h-531l-98 -282q-35 -123 -4 -170t131 -60v-14h-408zM412 575h497l-247 715zM598 1634.5q0 65.5 42 106.5t111.5 41t111.5 -41
t42 -106.5t-42 -106.5t-111.5 -41t-111.5 41t-42 106.5zM633 1634.5q0 -53.5 33.5 -85t85 -31.5t85 31.5t33.5 85t-33.5 85t-85 31.5t-85 -31.5t-33.5 -85z" />
    <glyph glyph-name="AE" unicode="&#xc6;" horiz-adv-x="1888" 
d="M10 0v14q78 10 128 58.5t110 158.5l663 1203h801l47 -461h-16q-33 133 -70 210t-104.5 128t-163.5 70.5t-252 19.5v-668h121q141 0 208.5 53.5t94.5 186.5h18v-524h-18q-20 129 -92 185t-211 56h-121v-657q121 0 204 9t148.5 33.5t106.5 57.5t73.5 95.5t53 130
t43.5 176.5h16l-53 -535h-971v14q92 10 123 48t31 147v317h-455l-184 -340q-33 -61 -33 -98q0 -31 25.5 -47t93.5 -27v-14h-365zM498 573h430v795z" />
    <glyph glyph-name="Ccedilla" unicode="&#xc7;" horiz-adv-x="1327" 
d="M72 696q0 350 191.5 564.5t502.5 214.5q233 0 453 -89l-52 -485l-18 2q-25 483 -440 483q-209 0 -332 -145t-123 -391q0 -309 162 -503.5t418 -194.5q324 0 393 297l16 -5q-84 -473 -508 -485l-59 -92q25 18 67 18q63 0 107.5 -42t44.5 -113q0 -74 -48 -122t-120 -48
q-61 0 -103 34.5t-55 92.5l17 8q29 -70 102 -70q43 0 71.5 29t28.5 78q0 45 -24.5 70.5t-63 25.5t-63.5 -23l-19 13l84 141q-285 2 -457.5 205t-172.5 532z" />
    <glyph glyph-name="Egrave" unicode="&#xc8;" horiz-adv-x="1232" 
d="M61 0v14q90 10 121 48t31 147v1032q0 92 -31.5 130t-120.5 48v15h1002l41 -461h-14q-57 229 -150.5 325.5t-282.5 96.5h-217v-641h150q129 0 192.5 63.5t87.5 206.5h17v-588h-17q-25 145 -89 212t-191 67h-150v-676h213q223 0 319.5 106.5t155.5 389.5h15l-53 -535h-1029
zM303 1749v12h201l145 -237h-18z" />
    <glyph glyph-name="Eacute" unicode="&#xc9;" horiz-adv-x="1232" 
d="M61 0v14q90 10 121 48t31 147v1032q0 92 -31.5 130t-120.5 48v15h1002l41 -461h-14q-57 229 -150.5 325.5t-282.5 96.5h-217v-641h150q129 0 192.5 63.5t87.5 206.5h17v-588h-17q-25 145 -89 212t-191 67h-150v-676h213q223 0 319.5 106.5t155.5 389.5h15l-53 -535h-1029
zM645 1524l143 237h201v-12l-327 -225h-17z" />
    <glyph glyph-name="Ecircumflex" unicode="&#xca;" horiz-adv-x="1232" 
d="M61 0v14q90 10 121 48t31 147v1032q0 92 -31.5 130t-120.5 48v15h1002l41 -461h-14q-57 229 -150.5 325.5t-282.5 96.5h-217v-641h150q129 0 192.5 63.5t87.5 206.5h17v-588h-17q-25 145 -89 212t-191 67h-150v-676h213q223 0 319.5 106.5t155.5 389.5h15l-53 -535h-1029
zM389 1501l246 260h24l246 -260h-18l-240 148l-239 -148h-19z" />
    <glyph glyph-name="Edieresis" unicode="&#xcb;" horiz-adv-x="1232" 
d="M61 0v14q90 10 121 48t31 147v1032q0 92 -31.5 130t-120.5 48v15h1002l41 -461h-14q-57 229 -150.5 325.5t-282.5 96.5h-217v-641h150q129 0 192.5 63.5t87.5 206.5h17v-588h-17q-25 145 -89 212t-191 67h-150v-676h213q223 0 319.5 106.5t155.5 389.5h15l-53 -535h-1029
zM319 1665q0 47 31 78t78 31t78 -31t31 -78t-32 -79t-77 -32t-77 32t-32 79zM758 1665q0 47 31.5 78t78.5 31q45 0 77 -31t32 -78t-32 -79t-77 -32q-47 0 -78.5 32t-31.5 79z" />
    <glyph glyph-name="Igrave" unicode="&#xcc;" horiz-adv-x="655" 
d="M-16 1749v12h200l146 -237h-19zM61 0v14q90 10 121 48t31 147v1032q0 92 -31.5 130t-120.5 48v15h533v-15q-90 -10 -122 -48t-32 -130v-1032q0 -102 33 -143t121 -52v-14h-533z" />
    <glyph glyph-name="Iacute" unicode="&#xcd;" horiz-adv-x="655" 
d="M61 0v14q90 10 121 48t31 147v1032q0 92 -31.5 130t-120.5 48v15h533v-15q-90 -10 -122 -48t-32 -130v-1032q0 -102 33 -143t121 -52v-14h-533zM326 1524l143 237h201v-12l-328 -225h-16z" />
    <glyph glyph-name="Icircumflex" unicode="&#xce;" horiz-adv-x="655" 
d="M61 0v14q90 10 121 48t31 147v1032q0 92 -31.5 130t-120.5 48v15h533v-15q-90 -10 -122 -48t-32 -130v-1032q0 -102 33 -143t121 -52v-14h-533zM70 1501l245 260h25l246 -260h-19l-239 148l-240 -148h-18z" />
    <glyph glyph-name="Idieresis" unicode="&#xcf;" horiz-adv-x="655" 
d="M0 1665q0 47 30.5 78t78 31t78 -31t30.5 -78t-31.5 -79t-77 -32t-77 32t-31.5 79zM61 0v14q90 10 121 48t31 147v1032q0 92 -31.5 130t-120.5 48v15h533v-15q-90 -10 -122 -48t-32 -130v-1032q0 -102 33 -143t121 -52v-14h-533zM438 1665q0 47 32 78t79 31q45 0 76.5 -31
t31.5 -78t-31.5 -79t-76.5 -32q-47 0 -79 32t-32 79z" />
    <glyph glyph-name="Eth" unicode="&#xd0;" horiz-adv-x="1470" 
d="M61 717v31h181v493q0 92 -32 130t-120 48v15h547q356 0 555 -188.5t199 -526.5q0 -344 -202 -531.5t-550 -187.5h-549v14q90 10 121 48t31 147v508h-181zM469 39h115q291 0 423 152.5t132 515.5q0 369 -134.5 528.5t-420.5 159.5h-115v-647h254v-31h-254v-678z" />
    <glyph glyph-name="Ntilde" unicode="&#xd1;" horiz-adv-x="1509" 
d="M61 0v14q109 10 151 62.5t42 181.5v1024q-90 109 -193 137v15h373l807 -1016v776q0 117 -44 164t-161 61v15h443v-15q-102 -10 -144.5 -61t-42.5 -164v-1214h-6l-981 1239v-961q0 -129 46 -180t161 -64v-14h-451zM524 1542q8 100 59.5 151.5t129.5 51.5q59 0 136 -43
t126 -43q111 0 139 98h10q-8 -100 -59 -151.5t-129 -51.5q-59 0 -136 43t-126 43q-111 0 -137 -98h-13z" />
    <glyph glyph-name="Ograve" unicode="&#xd2;" horiz-adv-x="1568" 
d="M72 717q0 332 200.5 545t511.5 213q313 0 513 -213t200 -545t-200 -545t-513 -213q-311 0 -511.5 213t-200.5 545zM330 717q0 -348 114.5 -526.5t340 -178.5t341 178.5t115.5 526.5q0 705 -457 704q-455 0 -454 -704zM440 1749v12h201l145 -237h-18z" />
    <glyph glyph-name="Oacute" unicode="&#xd3;" horiz-adv-x="1568" 
d="M72 717q0 332 200.5 545t511.5 213q313 0 513 -213t200 -545t-200 -545t-513 -213q-311 0 -511.5 213t-200.5 545zM330 717q0 -348 114.5 -526.5t340 -178.5t341 178.5t115.5 526.5q0 705 -457 704q-455 0 -454 -704zM782 1524l144 237h200v-12l-327 -225h-17z" />
    <glyph glyph-name="Ocircumflex" unicode="&#xd4;" horiz-adv-x="1568" 
d="M72 717q0 332 200.5 545t511.5 213q313 0 513 -213t200 -545t-200 -545t-513 -213q-311 0 -511.5 213t-200.5 545zM330 717q0 -348 114.5 -526.5t340 -178.5t341 178.5t115.5 526.5q0 705 -457 704q-455 0 -454 -704zM526 1501l246 260h25l245 -260h-18l-240 148
l-239 -148h-19z" />
    <glyph glyph-name="Otilde" unicode="&#xd5;" horiz-adv-x="1568" 
d="M72 717q0 332 200.5 545t511.5 213q313 0 513 -213t200 -545t-200 -545t-513 -213q-311 0 -511.5 213t-200.5 545zM330 717q0 -348 114.5 -526.5t340 -178.5t341 178.5t115.5 526.5q0 705 -457 704q-455 0 -454 -704zM502 1546q8 100 59 151.5t129 51.5q59 0 136 -43
t126 -43q111 0 140 98h10q-8 -100 -59.5 -151t-129.5 -51q-59 0 -136 43t-126 43q-111 0 -137 -99h-12z" />
    <glyph glyph-name="Odieresis" unicode="&#xd6;" horiz-adv-x="1568" 
d="M72 717q0 332 200.5 545t511.5 213q313 0 513 -213t200 -545t-200 -545t-513 -213q-311 0 -511.5 213t-200.5 545zM330 717q0 -348 114.5 -526.5t340 -178.5t341 178.5t115.5 526.5q0 705 -457 704q-455 0 -454 -704zM457 1665q0 47 31.5 78t76.5 31t77 -31t32 -78
t-32 -79t-77 -32t-76.5 32t-31.5 79zM895 1665q0 47 31.5 78t79 31t78 -31t30.5 -78t-31.5 -79t-76.5 -32q-47 0 -79 32t-32 79z" />
    <glyph glyph-name="multiply" unicode="&#xd7;" 
d="M231 299l330 332l-330 330l33 32l330 -329l328 329l32 -32l-329 -330l329 -332l-32 -31l-328 330l-330 -330z" />
    <glyph glyph-name="Oslash" unicode="&#xd8;" horiz-adv-x="1568" 
d="M72 717q0 332 200.5 545t511.5 213q262 0 453 -156l135 170h62l-160 -203q223 -217 223 -569q0 -332 -199.5 -545t-513.5 -213q-256 0 -444 150l-119 -150h-63l145 182q-231 215 -231 576zM330 717q0 -279 73 -449l746 940q-113 213 -365 213q-454 1 -454 -704zM428 219
q114 -207 356 -207q225 0 341 178.5t116 526.5q0 276 -70 442z" />
    <glyph glyph-name="Ugrave" unicode="&#xd9;" horiz-adv-x="1396" 
d="M16 1419v15h551v-15q-96 -12 -130 -49t-34 -137v-676q0 -242 96.5 -366.5t282.5 -124.5q379 0 379 499v625q0 115 -51 167t-168 62v15h438v-15q-90 -10 -129 -59t-39 -162v-670q0 -276 -124.5 -422.5t-376.5 -146.5q-260 0 -400.5 148.5t-140.5 433.5v700q0 92 -32 130
t-122 48zM412 1749v12h200l146 -237h-19z" />
    <glyph glyph-name="Uacute" unicode="&#xda;" horiz-adv-x="1396" 
d="M16 1419v15h551v-15q-96 -12 -130 -49t-34 -137v-676q0 -242 96.5 -366.5t282.5 -124.5q379 0 379 499v625q0 115 -51 167t-168 62v15h438v-15q-90 -10 -129 -59t-39 -162v-670q0 -276 -124.5 -422.5t-376.5 -146.5q-260 0 -400.5 148.5t-140.5 433.5v700q0 92 -32 130
t-122 48zM754 1524l143 237h201v-12l-328 -225h-16z" />
    <glyph glyph-name="Ucircumflex" unicode="&#xdb;" horiz-adv-x="1396" 
d="M16 1419v15h551v-15q-96 -12 -130 -49t-34 -137v-676q0 -242 96.5 -366.5t282.5 -124.5q379 0 379 499v625q0 115 -51 167t-168 62v15h438v-15q-90 -10 -129 -59t-39 -162v-670q0 -276 -124.5 -422.5t-376.5 -146.5q-260 0 -400.5 148.5t-140.5 433.5v700q0 92 -32 130
t-122 48zM498 1501l245 260h25l246 -260h-19l-239 148l-240 -148h-18z" />
    <glyph glyph-name="Udieresis" unicode="&#xdc;" horiz-adv-x="1396" 
d="M16 1419v15h551v-15q-96 -12 -130 -49t-34 -137v-676q0 -242 96.5 -366.5t282.5 -124.5q379 0 379 499v625q0 115 -51 167t-168 62v15h438v-15q-90 -10 -129 -59t-39 -162v-670q0 -276 -124.5 -422.5t-376.5 -146.5q-260 0 -400.5 148.5t-140.5 433.5v700q0 92 -32 130
t-122 48zM428 1665q0 47 32 78t77 31t76.5 -31t31.5 -78t-31.5 -79t-76.5 -32t-77 32t-32 79zM866 1665q0 47 32 78t79 31t77.5 -31t30.5 -78t-31.5 -79t-76.5 -32q-47 0 -79 32t-32 79z" />
    <glyph glyph-name="Yacute" unicode="&#xdd;" horiz-adv-x="1327" 
d="M16 1419v15h553v-15q-137 -12 -137 -102q0 -39 37 -107l274 -508l267 484q43 76 43 127q0 94 -133 106v15h389v-15q-127 -8 -230 -196l-307 -564v-481q6 -86 52 -119.5t169 -44.5v-14h-669v14q133 8 177 49t44 152v436l-314 576q-57 106 -102 147t-113 45zM741 1524
l144 237h200v-12l-327 -225h-17z" />
    <glyph glyph-name="Thorn" unicode="&#xde;" horiz-adv-x="1175" 
d="M61 0v14q90 10 121 48t31 147v1032q0 92 -31.5 130t-120.5 48v15h533v-15q-90 -10 -122 -48t-32 -130v-96h105q283 0 434 -102.5t151 -301.5q0 -197 -151 -299t-434 -102h-105v-131q0 -102 33 -143t121 -52v-14h-533zM440 377h52q391 0 391 364.5t-391 364.5h-52v-729z
" />
    <glyph glyph-name="germandbls" unicode="&#xdf;" horiz-adv-x="1175" 
d="M41 0v14q82 10 112.5 34t30.5 81v793q0 162 41 276.5t111 171.5t141.5 81t153.5 24q197 0 306.5 -98.5t109.5 -243.5q0 -141 -98.5 -246t-268.5 -107l-55 -2v-8l53 -2q211 -2 318.5 -112.5t107.5 -268.5q0 -168 -111.5 -292t-310.5 -124q-121 0 -190 58l12 16
q51 -41 131 -41q252 0 252 361q0 195 -81 293t-222 98h-58v32h58q137 0 196.5 96.5t59.5 231.5q0 160 -63.5 242t-170 82t-163 -71t-56.5 -204v-1165h-346z" />
    <glyph glyph-name="agrave" unicode="&#xe0;" horiz-adv-x="1083" 
d="M80 217q0 258 362 332l211 41v53q0 295 -245 295q-109 0 -182.5 -62.5t-100.5 -181.5l-14 2q20 166 124.5 263.5t266.5 97.5q176 0 265 -103.5t89 -294.5v-471q0 -55 21.5 -86.5t58.5 -31.5q80 -1 115 116l16 -2q-51 -215 -238 -215q-78 0 -122.5 47t-49.5 129l-2 31
q-18 -80 -99 -143.5t-198 -63.5q-131 0 -204.5 71t-73.5 177zM217 1423v11h203l110 -291h-43zM281 276q0 -88 44 -148t132 -60q143 0 196 139v346l-141 -27q-76 -14 -125 -42.5t-70.5 -66.5t-28.5 -69t-7 -72z" />
    <glyph glyph-name="aacute" unicode="&#xe1;" horiz-adv-x="1083" 
d="M80 217q0 258 362 332l211 41v53q0 295 -245 295q-109 0 -182.5 -62.5t-100.5 -181.5l-14 2q20 166 124.5 263.5t266.5 97.5q176 0 265 -103.5t89 -294.5v-471q0 -55 21.5 -86.5t58.5 -31.5q80 -1 115 116l16 -2q-51 -215 -238 -215q-78 0 -122.5 47t-49.5 129l-2 31
q-18 -80 -99 -143.5t-198 -63.5q-131 0 -204.5 71t-73.5 177zM281 276q0 -88 44 -148t132 -60q143 0 196 139v346l-141 -27q-76 -14 -125 -42.5t-70.5 -66.5t-28.5 -69t-7 -72zM487 1143l111 291h203v-11l-271 -280h-43z" />
    <glyph glyph-name="acircumflex" unicode="&#xe2;" horiz-adv-x="1083" 
d="M80 217q0 258 362 332l211 41v53q0 295 -245 295q-109 0 -182.5 -62.5t-100.5 -181.5l-14 2q20 166 124.5 263.5t266.5 97.5q176 0 265 -103.5t89 -294.5v-471q0 -55 21.5 -86.5t58.5 -31.5q80 -1 115 116l16 -2q-51 -215 -238 -215q-78 0 -122.5 47t-49.5 129l-2 31
q-18 -80 -99 -143.5t-198 -63.5q-131 0 -204.5 71t-73.5 177zM244 1122l237 312h58l237 -312h-43l-223 189l-223 -189h-43zM281 276q0 -88 44 -148t132 -60q143 0 196 139v346l-141 -27q-76 -14 -125 -42.5t-70.5 -66.5t-28.5 -69t-7 -72z" />
    <glyph glyph-name="atilde" unicode="&#xe3;" horiz-adv-x="1083" 
d="M80 217q0 258 362 332l211 41v53q0 295 -245 295q-109 0 -182.5 -62.5t-100.5 -181.5l-14 2q20 166 124.5 263.5t266.5 97.5q176 0 265 -103.5t89 -294.5v-471q0 -55 21.5 -86.5t58.5 -31.5q80 -1 115 116l16 -2q-51 -215 -238 -215q-78 0 -122.5 47t-49.5 129l-2 31
q-18 -80 -99 -143.5t-198 -63.5q-131 0 -204.5 71t-73.5 177zM219 1180q8 106 57.5 159.5t124.5 53.5q57 0 132 -45t122 -45q109 0 138 102h10q-8 -106 -57.5 -159.5t-124.5 -53.5q-57 0 -133 46t-123 46q-109 0 -136 -104h-10zM281 276q0 -88 44 -148t132 -60
q143 0 196 139v346l-141 -27q-76 -14 -125 -42.5t-70.5 -66.5t-28.5 -69t-7 -72z" />
    <glyph glyph-name="adieresis" unicode="&#xe4;" horiz-adv-x="1083" 
d="M80 217q0 258 362 332l211 41v53q0 295 -245 295q-109 0 -182.5 -62.5t-100.5 -181.5l-14 2q20 166 124.5 263.5t266.5 97.5q176 0 265 -103.5t89 -294.5v-471q0 -55 21.5 -86.5t58.5 -31.5q80 -1 115 116l16 -2q-51 -215 -238 -215q-78 0 -122.5 47t-49.5 129l-2 31
q-18 -80 -99 -143.5t-198 -63.5q-131 0 -204.5 71t-73.5 177zM215 1315q0 51 33 83t82 32t81.5 -32t32.5 -83t-32.5 -83t-81.5 -32t-82 32t-33 83zM281 276q0 -88 44 -148t132 -60q143 0 196 139v346l-141 -27q-76 -14 -125 -42.5t-70.5 -66.5t-28.5 -69t-7 -72zM573 1315
q0 51 33 83t82 32t82 -32t33 -83t-33 -83t-82 -32t-82 32t-33 83z" />
    <glyph glyph-name="aring" unicode="&#xe5;" horiz-adv-x="1083" 
d="M80 217q0 258 362 332l211 41v53q0 295 -245 295q-109 0 -182.5 -62.5t-100.5 -181.5l-14 2q20 166 124.5 263.5t266.5 97.5q176 0 265 -103.5t89 -294.5v-471q0 -55 21.5 -86.5t58.5 -31.5q80 -1 115 116l16 -2q-51 -215 -238 -215q-78 0 -122.5 47t-49.5 129l-2 31
q-18 -80 -99 -143.5t-198 -63.5q-131 0 -204.5 71t-73.5 177zM281 276q0 -88 44 -148t132 -60q143 0 196 139v346l-141 -27q-76 -14 -125 -42.5t-70.5 -66.5t-28.5 -69t-7 -72zM315 1317q0 82 55.5 136t139.5 54q86 0 141.5 -53t55.5 -137t-55.5 -137.5t-141.5 -53.5
q-84 0 -139.5 54.5t-55.5 136.5zM365 1316.5q0 -67.5 40.5 -107.5t104 -40t104.5 40t41 107.5t-41 107.5t-104.5 40t-104 -40t-40.5 -107.5z" />
    <glyph glyph-name="ae" unicode="&#xe6;" horiz-adv-x="1525" 
d="M80 248q0 154 125 253t381 105l71 2l-4 33q-23 156 -89 226.5t-187 70.5q-102 0 -169 -58.5t-85 -166.5l-12 2q20 160 124.5 251t253.5 91q119 0 201 -64.5t105 -183.5q82 248 299 248q162 0 257 -124t105 -349h-614q10 -217 95 -337t239 -120q201 0 270 205h10
q-76 -358 -364 -359q-274 0 -369 279q-35 -135 -123 -210t-219 -75q-139 0 -220 77t-81 204zM285 317q0 -115 54 -177t146 -62q82 0 141.5 55t84.5 156q-16 78 -19 92l-30 203h-15q-362 -4 -362 -267zM842 610h405q0 215 -43 311.5t-139 96.5q-102 0 -162.5 -98.5
t-60.5 -290.5v-19z" />
    <glyph glyph-name="ccedilla" unicode="&#xe7;" horiz-adv-x="964" 
d="M66 489q0 264 134 416t357 152q180 0 311 -66l-47 -356h-14q-16 342 -281 342q-147 0 -229 -101.5t-82 -289.5q0 -180 103.5 -312.5t275.5 -132.5q238 0 287 215l16 -4q-16 -168 -112.5 -270t-245.5 -113l-68 -102q25 18 68 18q63 0 107 -42t44 -113q0 -74 -48 -122
t-120 -48q-61 0 -103 34.5t-54 92.5l16 8q29 -70 102 -70q43 0 72 29t29 78q0 45 -24.5 70.5t-63.5 25.5t-64 -23l-18 13l90 151q-199 2 -318.5 145.5t-119.5 374.5z" />
    <glyph glyph-name="egrave" unicode="&#xe8;" horiz-adv-x="972" 
d="M66 495.5q0 249.5 119.5 405.5t330.5 156q172 0 276.5 -119t98.5 -324h-674q4 -221 105.5 -347t267.5 -126q104 0 180 47.5t119 176.5l14 -3q-35 -197 -140.5 -295t-256.5 -98q-190 0 -315 138.5t-125 388zM186 1423v11h203l111 -291h-43zM217 653h469q6 180 -54.5 269.5
t-160.5 89.5q-111 0 -180.5 -97.5t-73.5 -261.5z" />
    <glyph glyph-name="eacute" unicode="&#xe9;" horiz-adv-x="972" 
d="M66 495.5q0 249.5 119.5 405.5t330.5 156q172 0 276.5 -119t98.5 -324h-674q4 -221 105.5 -347t267.5 -126q104 0 180 47.5t119 176.5l14 -3q-35 -197 -140.5 -295t-256.5 -98q-190 0 -315 138.5t-125 388zM217 653h469q6 180 -54.5 269.5t-160.5 89.5
q-111 0 -180.5 -97.5t-73.5 -261.5zM457 1143l110 291h203v-11l-270 -280h-43z" />
    <glyph glyph-name="ecircumflex" unicode="&#xea;" horiz-adv-x="972" 
d="M66 495.5q0 249.5 119.5 405.5t330.5 156q172 0 276.5 -119t98.5 -324h-674q4 -221 105.5 -347t267.5 -126q104 0 180 47.5t119 176.5l14 -3q-35 -197 -140.5 -295t-256.5 -98q-190 0 -315 138.5t-125 388zM213 1122l238 312h57l237 -312h-43l-223 189l-223 -189h-43z
M217 653h469q6 180 -54.5 269.5t-160.5 89.5q-111 0 -180.5 -97.5t-73.5 -261.5z" />
    <glyph glyph-name="edieresis" unicode="&#xeb;" horiz-adv-x="972" 
d="M66 495.5q0 249.5 119.5 405.5t330.5 156q172 0 276.5 -119t98.5 -324h-674q4 -221 105.5 -347t267.5 -126q104 0 180 47.5t119 176.5l14 -3q-35 -197 -140.5 -295t-256.5 -98q-190 0 -315 138.5t-125 388zM184 1315q0 51 33 83t82 32t82 -32t33 -83t-33 -83t-82 -32
t-82 32t-33 83zM217 653h469q6 180 -54.5 269.5t-160.5 89.5q-111 0 -180.5 -97.5t-73.5 -261.5zM543 1315q0 51 32.5 83t82 32t82 -32t32.5 -83t-32.5 -83t-82 -32t-82 32t-32.5 83z" />
    <glyph glyph-name="igrave" unicode="&#xec;" horiz-adv-x="581" 
d="M-8 1423v11h203l110 -291h-43zM51 0v14q82 10 113 34t31 81v676q0 88 -28 111.5t-116 19.5v14l346 92v-913q0 -57 31 -80.5t113 -34.5v-14h-490z" />
    <glyph glyph-name="iacute" unicode="&#xed;" horiz-adv-x="581" 
d="M51 0v14q82 10 113 34t31 81v676q0 88 -28 111.5t-116 19.5v14l346 92v-913q0 -57 31 -80.5t113 -34.5v-14h-490zM262 1143l111 291h202v-11l-270 -280h-43z" />
    <glyph glyph-name="icircumflex" unicode="&#xee;" horiz-adv-x="581" 
d="M18 1122l238 312h57l238 -312h-43l-223 189l-224 -189h-43zM51 0v14q82 10 113 34t31 81v676q0 88 -28 111.5t-116 19.5v14l346 92v-913q0 -57 31 -80.5t113 -34.5v-14h-490z" />
    <glyph glyph-name="idieresis" unicode="&#xef;" horiz-adv-x="581" 
d="M-10 1315q0 51 32.5 83t82 32t82 -32t32.5 -83t-32.5 -83t-82 -32t-82 32t-32.5 83zM51 0v14q82 10 113 34t31 81v676q0 88 -28 111.5t-116 19.5v14l346 92v-913q0 -57 31 -80.5t113 -34.5v-14h-490zM348 1315q0 51 33 83t82 32t82 -32t33 -83t-33 -83t-82 -32t-82 32
t-33 83z" />
    <glyph glyph-name="eth" unicode="&#xf0;" horiz-adv-x="1118" 
d="M66 506q0 254 133 402.5t321 148.5q80 0 150.5 -30t111.5 -83q-43 213 -155 334l-367 -166v37l342 154q-129 121 -373 157l2 15q256 -18 441 -140l221 99v-35l-188 -86q164 -119 246.5 -306.5t82.5 -402.5q0 -299 -128 -467t-351 -168q-219 0 -354 140.5t-135 396.5z
M285 496q0 -240 71.5 -367t196.5 -127q264 0 264 549q0 190 -26 354q-57 98 -205 99q-131 0 -216 -127t-85 -381z" />
    <glyph glyph-name="ntilde" unicode="&#xf1;" horiz-adv-x="1202" 
d="M51 0v14q82 10 113 34t31 81v682q0 88 -28 112.5t-116 18.5v14l346 93v-218q27 96 114 161t206 65q150 0 225.5 -88t75.5 -242v-598q0 -57 30.5 -80.5t112.5 -34.5v-14h-479v14q78 10 104.5 31t26.5 78v579q0 262 -199 263q-158 0 -217 -160v-682q0 -57 27 -77.5
t104 -31.5v-14h-477zM309 1180q8 106 57.5 159.5t125.5 53.5q57 0 131.5 -45t121.5 -45q109 0 138 102h10q-8 -106 -57 -159.5t-125 -53.5q-57 0 -133 46t-123 46q-109 0 -136 -104h-10z" />
    <glyph glyph-name="ograve" unicode="&#xf2;" horiz-adv-x="1124" 
d="M66 512q0 240 135 392.5t362 152.5q225 0 360.5 -152.5t135.5 -392.5q0 -238 -135.5 -390.5t-360.5 -152.5q-227 0 -362 152.5t-135 390.5zM270 1423v11h203l111 -291h-43zM285 512q-1 -496 278 -496q276 0 277 496q0 498 -277 498q-279 0 -278 -498z" />
    <glyph glyph-name="oacute" unicode="&#xf3;" horiz-adv-x="1124" 
d="M66 512q0 240 135 392.5t362 152.5q225 0 360.5 -152.5t135.5 -392.5q0 -238 -135.5 -390.5t-360.5 -152.5q-227 0 -362 152.5t-135 390.5zM285 512q-1 -496 278 -496q276 0 277 496q0 498 -277 498q-279 0 -278 -498zM541 1143l110 291h203v-11l-270 -280h-43z" />
    <glyph glyph-name="ocircumflex" unicode="&#xf4;" horiz-adv-x="1124" 
d="M66 512q0 240 135 392.5t362 152.5q225 0 360.5 -152.5t135.5 -392.5q0 -238 -135.5 -390.5t-360.5 -152.5q-227 0 -362 152.5t-135 390.5zM285 512q-1 -496 278 -496q276 0 277 496q0 498 -277 498q-279 0 -278 -498zM297 1122l238 312h57l237 -312h-43l-223 189
l-223 -189h-43z" />
    <glyph glyph-name="otilde" unicode="&#xf5;" horiz-adv-x="1124" 
d="M66 512q0 240 135 392.5t362 152.5q225 0 360.5 -152.5t135.5 -392.5q0 -238 -135.5 -390.5t-360.5 -152.5q-227 0 -362 152.5t-135 390.5zM272 1180q8 106 57.5 159.5t125.5 53.5q57 0 132 -45t122 -45q109 0 137 102h10q-8 -106 -57 -159.5t-125 -53.5q-57 0 -133 46
t-123 46q-109 0 -135 -104h-11zM285 512q-1 -496 278 -496q276 0 277 496q0 498 -277 498q-279 0 -278 -498z" />
    <glyph glyph-name="odieresis" unicode="&#xf6;" horiz-adv-x="1124" 
d="M66 512q0 240 135 392.5t362 152.5q225 0 360.5 -152.5t135.5 -392.5q0 -238 -135.5 -390.5t-360.5 -152.5q-227 0 -362 152.5t-135 390.5zM268 1315q0 51 33 83t82 32t82 -32t33 -83t-33 -83t-82 -32t-82 32t-33 83zM285 512q-1 -496 278 -496q276 0 277 496
q0 498 -277 498q-279 0 -278 -498zM627 1315q0 51 32.5 83t82 32t82 -32t32.5 -83t-32.5 -83t-82 -32t-82 32t-32.5 83z" />
    <glyph glyph-name="divide" unicode="&#xf7;" 
d="M186 612v39h815v-39h-815zM483 301q0 45 33 78t78 33t78 -33t33 -78t-33 -78t-78 -33t-78 33t-33 78zM483 934q0 45 33 77.5t78 32.5t78 -32.5t33 -77.5t-33 -78t-78 -33t-78 33t-33 78z" />
    <glyph glyph-name="oslash" unicode="&#xf8;" horiz-adv-x="1124" 
d="M66 512q0 240 135 392.5t362 152.5q168 0 291 -90l70 102h51l-88 -129q172 -150 172 -428q0 -238 -135.5 -390.5t-360.5 -152.5q-168 0 -287 86l-67 -96h-47l82 121q-178 150 -178 432zM285 512q0 -199 41 -313l456 665q-66 145 -219 146q-278 0 -278 -498zM344 156
q67 -140 219 -140q276 0 277 496q0 190 -39 305z" />
    <glyph glyph-name="ugrave" unicode="&#xf9;" horiz-adv-x="1161" 
d="M25 973v14l346 62v-717q0 -123 54 -190.5t153 -65.5q63 2 115 38t79 95v633q0 90 -25.5 114.5t-107.5 18.5v14l338 60v-889q0 -76 32.5 -106.5t110.5 -39.5v-14h-348v178q-35 -88 -116 -148.5t-185 -60.5q-145 0 -225 85t-80 253v535q0 88 -27.5 112.5t-113.5 18.5z
M272 1423v11h203l111 -291h-43z" />
    <glyph glyph-name="uacute" unicode="&#xfa;" horiz-adv-x="1161" 
d="M25 973v14l346 62v-717q0 -123 54 -190.5t153 -65.5q63 2 115 38t79 95v633q0 90 -25.5 114.5t-107.5 18.5v14l338 60v-889q0 -76 32.5 -106.5t110.5 -39.5v-14h-348v178q-35 -88 -116 -148.5t-185 -60.5q-145 0 -225 85t-80 253v535q0 88 -27.5 112.5t-113.5 18.5z
M543 1143l110 291h203v-11l-270 -280h-43z" />
    <glyph glyph-name="ucircumflex" unicode="&#xfb;" horiz-adv-x="1161" 
d="M25 973v14l346 62v-717q0 -123 54 -190.5t153 -65.5q63 2 115 38t79 95v633q0 90 -25.5 114.5t-107.5 18.5v14l338 60v-889q0 -76 32.5 -106.5t110.5 -39.5v-14h-348v178q-35 -88 -116 -148.5t-185 -60.5q-145 0 -225 85t-80 253v535q0 88 -27.5 112.5t-113.5 18.5z
M299 1122l238 312h57l237 -312h-43l-223 189l-223 -189h-43z" />
    <glyph glyph-name="udieresis" unicode="&#xfc;" horiz-adv-x="1161" 
d="M25 973v14l346 62v-717q0 -123 54 -190.5t153 -65.5q63 2 115 38t79 95v633q0 90 -25.5 114.5t-107.5 18.5v14l338 60v-889q0 -76 32.5 -106.5t110.5 -39.5v-14h-348v178q-35 -88 -116 -148.5t-185 -60.5q-145 0 -225 85t-80 253v535q0 88 -27.5 112.5t-113.5 18.5z
M270 1315q0 51 33 83t82 32t82 -32t33 -83t-33 -83t-82 -32t-82 32t-33 83zM629 1315q0 51 32.5 83t82 32t82 -32t32.5 -83t-32.5 -83t-82 -32t-82 32t-32.5 83z" />
    <glyph glyph-name="yacute" unicode="&#xfd;" horiz-adv-x="1081" 
d="M-2 -401l35 198h10q63 -57 184 -57q205 0 285 172l16 37l-346 872q-68 176 -170 189v16h494v-16q-72 -6 -100.5 -27.5t-28.5 -64.5q0 -37 24 -105l220 -600l237 584q23 57 23 100q0 100 -123 113v16h313v-16q-57 -16 -90 -56.5t-68 -136.5l-356 -897
q-74 -209 -172 -284.5t-223 -75.5q-94 0 -164 39zM608 1143l111 291h203v-11l-271 -280h-43z" />
    <glyph glyph-name="thorn" unicode="&#xfe;" horiz-adv-x="1146" 
d="M41 -395q82 10 112.5 33.5t30.5 80.5v1538q0 84 -28.5 109t-114.5 18v17l346 94v-633q39 88 121 141.5t190 53.5q166 0 277.5 -136.5t111.5 -359.5q0 -258 -138 -425t-335 -167q-125 0 -227 78v-328q0 -61 36 -83.5t148 -30.5v-15h-530v15zM387 119q25 -41 76 -76
t127 -35q121 0 199.5 130t78.5 362q0 207 -77.5 329.5t-204.5 122.5q-137 0 -199 -114v-719z" />
    <glyph glyph-name="ydieresis" unicode="&#xff;" horiz-adv-x="1081" 
d="M-2 -401l35 198h10q63 -57 184 -57q205 0 285 172l16 37l-346 872q-68 176 -170 189v16h494v-16q-72 -6 -100.5 -27.5t-28.5 -64.5q0 -37 24 -105l220 -600l237 584q23 57 23 100q0 100 -123 113v16h313v-16q-57 -16 -90 -56.5t-68 -136.5l-356 -897
q-74 -209 -172 -284.5t-223 -75.5q-94 0 -164 39zM336 1315q0 51 32.5 83t82 32t82 -32t32.5 -83t-32.5 -83t-82 -32t-82 32t-32.5 83zM694 1315q0 51 33 83t82 32t82 -32t33 -83t-33 -83t-82 -32t-82 32t-33 83z" />
    <glyph glyph-name="OE" unicode="&#x152;" horiz-adv-x="1890" 
d="M72 716.5q0 317.5 202.5 517.5t522.5 200h919l45 -461h-4q-55 219 -186 330q-70 57 -161 76.5t-275 21.5v-666h110q145 0 218 63.5t100 207.5h6v-580h-6q-27 145 -99.5 210.5t-218.5 65.5h-110v-669q213 2 313 24.5t170 92.5q119 115 176 385h6l-51 -535h-952
q-319 0 -522 199.5t-203 517zM328 717q0 -330 130 -507t369 -177h82v1368h-82q-240 0 -369.5 -177t-129.5 -507z" />
    <glyph glyph-name="oe" unicode="&#x153;" horiz-adv-x="1773" 
d="M66 512q0 240 131 392.5t352 152.5q268 0 391 -226q123 225 377 226q172 0 276.5 -119t98.5 -324h-674q4 -221 105.5 -347t267.5 -126q104 0 180 47.5t119 176.5l14 -3q-35 -197 -140.5 -295t-256.5 -98q-250 0 -369 215q-125 -215 -389 -215q-221 0 -352 152.5
t-131 390.5zM285 512q0 -496 264 -496q270 0 270 496q0 498 -270 498q-264 0 -264 -498zM1018 653h469q6 180 -54.5 269.5t-160.5 89.5q-111 0 -180.5 -97.5t-73.5 -261.5z" />
    <glyph glyph-name="Ydieresis" unicode="&#x178;" horiz-adv-x="1327" 
d="M16 1419v15h553v-15q-137 -12 -137 -102q0 -39 37 -107l274 -508l267 484q43 76 43 127q0 94 -133 106v15h389v-15q-127 -8 -230 -196l-307 -564v-481q6 -86 52 -119.5t169 -44.5v-14h-669v14q133 8 177 49t44 152v436l-314 576q-57 106 -102 147t-113 45zM416 1665
q0 47 31.5 78t76.5 31t77 -31t32 -78t-32 -79t-77 -32t-76.5 32t-31.5 79zM854 1665q0 47 32 78t79 31t77.5 -31t30.5 -78t-31.5 -79t-76.5 -32q-47 0 -79 32t-32 79z" />
    <glyph glyph-name="circumflex" unicode="&#x2c6;" horiz-adv-x="1228" 
d="M102 1122l238 312h57l238 -312h-43l-223 189l-224 -189h-43z" />
    <glyph glyph-name="tilde" unicode="&#x2dc;" horiz-adv-x="1228" 
d="M102 1180q8 106 57.5 159.5t125.5 53.5q57 0 132 -45t122 -45q109 0 137 102h10q-8 -106 -57 -159.5t-125 -53.5q-57 0 -133 46t-123 46q-109 0 -135 -104h-11z" />
    <glyph glyph-name="uni2000" unicode="&#x2000;" horiz-adv-x="891" 
 />
    <glyph glyph-name="uni2001" unicode="&#x2001;" horiz-adv-x="1782" 
 />
    <glyph glyph-name="uni2002" unicode="&#x2002;" horiz-adv-x="891" 
 />
    <glyph glyph-name="uni2003" unicode="&#x2003;" horiz-adv-x="1782" 
 />
    <glyph glyph-name="uni2004" unicode="&#x2004;" horiz-adv-x="594" 
 />
    <glyph glyph-name="uni2005" unicode="&#x2005;" horiz-adv-x="445" 
 />
    <glyph glyph-name="uni2006" unicode="&#x2006;" horiz-adv-x="297" 
 />
    <glyph glyph-name="uni2007" unicode="&#x2007;" horiz-adv-x="297" 
 />
    <glyph glyph-name="uni2008" unicode="&#x2008;" horiz-adv-x="222" 
 />
    <glyph glyph-name="uni2009" unicode="&#x2009;" horiz-adv-x="356" 
 />
    <glyph glyph-name="uni200A" unicode="&#x200a;" horiz-adv-x="99" 
 />
    <glyph glyph-name="uni2010" unicode="&#x2010;" horiz-adv-x="753" 
d="M82 588v76h588v-76h-588z" />
    <glyph glyph-name="uni2011" unicode="&#x2011;" horiz-adv-x="753" 
d="M82 588v76h588v-76h-588z" />
    <glyph glyph-name="figuredash" unicode="&#x2012;" horiz-adv-x="753" 
d="M82 588v76h588v-76h-588z" />
    <glyph glyph-name="endash" unicode="&#x2013;" horiz-adv-x="1138" 
d="M82 602v47h973v-47h-973z" />
    <glyph glyph-name="emdash" unicode="&#x2014;" horiz-adv-x="1681" 
d="M82 602v47h1515v-47h-1515z" />
    <glyph glyph-name="quoteleft" unicode="&#x2018;" horiz-adv-x="497" 
d="M117 1188q-1 223 241 303l7 -21q-162 -59 -162 -163q0 -80 86 -90q47 -4 79.5 -35t32.5 -82q0 -49 -33.5 -83t-88.5 -34q-66 0 -114 53.5t-48 151.5z" />
    <glyph glyph-name="quoteright" unicode="&#x2019;" horiz-adv-x="497" 
d="M96 1331q0 47 34 82t87 35q68 0 116 -53.5t48 -151.5q0 -223 -242 -303l-8 18q164 63 164 164q0 82 -86 92q-49 4 -81 35t-32 82z" />
    <glyph glyph-name="quotesinglbase" unicode="&#x201a;" horiz-adv-x="497" 
d="M96 39q0 47 34 82t87 35q68 0 116 -53.5t48 -151.5q0 -223 -242 -303l-8 18q164 63 164 164q0 82 -86 92q-49 4 -81 35t-32 82z" />
    <glyph glyph-name="quotedblleft" unicode="&#x201c;" horiz-adv-x="841" 
d="M117 1188q-1 223 241 303l7 -21q-162 -59 -162 -163q0 -80 86 -90q47 -4 79.5 -35t32.5 -82q0 -49 -33.5 -83t-88.5 -34q-66 0 -114 53.5t-48 151.5zM461 1188q-1 223 241 303l7 -21q-162 -59 -162 -163q0 -80 86 -90q47 -4 79.5 -35t32.5 -82q0 -49 -33.5 -83t-88.5 -34
q-66 0 -114 53.5t-48 151.5z" />
    <glyph glyph-name="quotedblright" unicode="&#x201d;" horiz-adv-x="825" 
d="M96 1331q0 47 34 82t87 35q68 0 116 -53.5t48 -151.5q0 -223 -242 -303l-8 18q164 63 164 164q0 82 -86 92q-49 4 -81 35t-32 82zM424 1331q0 47 34 82t87 35q68 0 116 -53.5t48 -151.5q0 -223 -242 -303l-8 18q164 63 164 164q0 82 -86 92q-49 4 -81 35t-32 82z" />
    <glyph glyph-name="quotedblbase" unicode="&#x201e;" horiz-adv-x="825" 
d="M117 47q0 47 33.5 82t87.5 35q68 0 115.5 -53.5t47.5 -151.5q1 -223 -241 -303l-8 18q164 63 163 164q0 82 -86 92q-49 4 -80.5 35t-31.5 82zM444 47q0 47 34 82t87 35q68 0 116 -53.5t48 -151.5q0 -223 -242 -303l-8 18q164 63 164 164q0 82 -86 92q-49 4 -81 35t-32 82
z" />
    <glyph glyph-name="bullet" unicode="&#x2022;" horiz-adv-x="1228" 
d="M410 713q0 86 59 145.5t145 59.5t145.5 -59.5t59.5 -145.5t-59.5 -145.5t-145.5 -59.5t-145 59.5t-59 145.5z" />
    <glyph glyph-name="ellipsis" unicode="&#x2026;" horiz-adv-x="1271" 
d="M96 106q0 53 38 92.5t93.5 39.5t94 -39t38.5 -93q0 -55 -38 -94t-95 -39q-55 0 -93 39t-38 94zM504 106q0 53 38 92.5t93 39.5t94 -39t39 -93q0 -55 -38 -94t-95 -39q-55 0 -93 39t-38 94zM913 106q0 53 38 92.5t93.5 39.5t94.5 -39t39 -93q0 -55 -38.5 -94t-95.5 -39
q-55 0 -93 39t-38 94z" />
    <glyph glyph-name="uni202F" unicode="&#x202f;" horiz-adv-x="356" 
 />
    <glyph glyph-name="guilsinglleft" unicode="&#x2039;" horiz-adv-x="653" 
d="M111 555v10l421 412l11 -8l-256 -408l256 -409l-11 -7z" />
    <glyph glyph-name="guilsinglright" unicode="&#x203a;" horiz-adv-x="653" 
d="M111 152l256 409l-256 408l10 8l422 -412v-10l-422 -410z" />
    <glyph glyph-name="uni205F" unicode="&#x205f;" horiz-adv-x="445" 
 />
    <glyph glyph-name="Euro" unicode="&#x20ac;" horiz-adv-x="1191" 
d="M37 627v41h110q0 51 9 145h-119v41h125q43 256 190.5 402.5t366.5 146.5q199 0 371 -84l-50 -375h-14q-25 387 -352 387q-162 0 -262.5 -129t-110.5 -348h551v-41h-551q0 -68 10 -145h541v-41h-535q37 -219 156 -350.5t289 -131.5q260 1 321 265l17 -4
q-31 -215 -139.5 -326t-288.5 -111q-236 0 -375 176.5t-150 481.5h-110z" />
    <glyph glyph-name="trademark" unicode="&#x2122;" horiz-adv-x="1624" 
d="M51 1124v273h6q23 -25 84 -25h422q63 0 88 25h4v-273h-6q-29 219 -182 219h-39v-577q0 -53 21.5 -75.5t89.5 -28.5v-7h-371v7q66 6 88.5 28.5t22.5 75.5v577h-39q-156 0 -183 -219h-6zM639 655v7q43 10 59.5 36.5t20.5 94.5l29 467q2 51 -12.5 73.5t-59.5 32.5v6h223
l211 -506l209 506h215v-6q-43 -10 -58.5 -31.5t-13.5 -79.5l29 -489q4 -49 21.5 -72.5t58.5 -31.5v-7h-314v7q88 18 82 124l-24 492l-264 -643h-4l-267 641l-28 -483q-4 -72 17.5 -95.5t84.5 -35.5v-7h-215z" />
    <glyph glyph-name="uni25FC" unicode="&#x25fc;" horiz-adv-x="1024" 
d="M0 0v1024h1024v-1024h-1024z" />
    <glyph glyph-name="uniFB03" unicode="&#xfb03;" horiz-adv-x="1767" 
d="M51 0v14q82 10 113 34t31 81v866h-136v31h136v70q0 184 108.5 281.5t286.5 97.5q190 0 305 -99q104 104 301 105q74 0 160 -19.5t157.5 -64.5t73.5 -105q0 -43 -27.5 -68.5t-72.5 -25.5q-78 0 -146 115q-74 117 -213 117q-92 0 -157.5 -60t-65.5 -166q0 -98 88 -178h152
v-31h-152v-866q0 -57 31 -80.5t113 -34.5v-14h-490v14q82 10 113 34t31 81v866h-136v31h136v51q0 102 28 178q-35 72 -103.5 119t-160.5 47q-123 0 -183.5 -64.5t-58.5 -154.5q0 -100 74 -176h162v-31h-152v-866q0 -57 31 -80.5t113 -34.5v-14h-490zM1237 0v14
q82 10 112.5 34t30.5 81v676q0 88 -28.5 111.5t-114.5 19.5v14l346 92v-913q0 -57 31 -80.5t112 -34.5v-14h-489z" />
    <glyph glyph-name="uniFB04" unicode="&#xfb04;" horiz-adv-x="1757" 
d="M51 0v14q82 10 113 34t31 81v866h-136v31h136v70q0 184 108.5 281.5t286.5 97.5q195 0 305 -101q106 106 309 107q219 0 369 -84v-1288q6 -45 37.5 -64.5t103.5 -30.5v-14h-487v14q82 10 112.5 34t30.5 81v1182q-72 117 -235 116q-100 0 -163 -60t-63 -157
q0 -113 82 -184h187v-31h-187v-866q0 -57 31 -80.5t113 -34.5v-14h-490v14q82 10 112.5 34t30.5 81v866h-135v31h135v37q0 113 31 192q-35 72 -103.5 119t-160.5 47q-123 0 -183.5 -64.5t-58.5 -154.5q0 -100 74 -176h162v-31h-152v-866q0 -57 31 -80.5t113 -34.5v-14h-490z
" />
    </font>
</defs>
</svg>
