<svg xmlns="http://www.w3.org/2000/svg" width="36.907" height="36.908" viewBox="0 0 36.907 36.908"><path d="M2287.912,46h-26.961a4.973,4.973,0,0,0-4.973,4.974v26.96a4.973,4.973,0,0,0,4.973,4.974h13.3l.023-13.189h-3.427a.808.808,0,0,1-.808-.805l-.016-4.252a.807.807,0,0,1,.808-.811h3.42V59.743c0-4.767,2.912-7.363,7.164-7.363h3.49a.808.808,0,0,1,.808.808v3.585a.808.808,0,0,1-.808.809h-2.141c-2.313,0-2.761,1.1-2.761,2.711v3.557h5.082a.808.808,0,0,1,.8.9l-.5,4.252a.808.808,0,0,1-.8.713h-4.555L2280,82.908h7.912a4.973,4.973,0,0,0,4.973-4.973V50.974A4.973,4.973,0,0,0,2287.912,46" transform="translate(-2255.978 -46)" fill="#EFBE60"/></svg>