<svg xmlns="http://www.w3.org/2000/svg" width="36.908" height="36.908" viewBox="0 0 36.908 36.908"><g transform="translate(-1625.75 -46)"><path d="M2219.946,71.913a7.282,7.282,0,0,1-7.282,7.282h-14.919a7.283,7.283,0,0,1-7.282-7.282V56.995a7.282,7.282,0,0,1,7.282-7.282h14.919a7.282,7.282,0,0,1,7.282,7.282ZM2212.664,46h-14.919a11.008,11.008,0,0,0-11,10.995V71.913a11.008,11.008,0,0,0,11,10.995h14.919a11.006,11.006,0,0,0,10.994-10.995V56.995A11.006,11.006,0,0,0,2212.664,46" transform="translate(-561)" fill="#EFBE60"/><path d="M2205.205,70.287a5.833,5.833,0,1,1,5.833-5.832,5.833,5.833,0,0,1-5.833,5.832m0-15.379a9.546,9.546,0,1,0,9.546,9.546,9.557,9.557,0,0,0-9.546-9.546" transform="translate(-561)" fill="#EFBE60"/><path d="M2214.769,52.693a2.288,2.288,0,0,1,0,4.575,2.241,2.241,0,0,1-.875-.175,2.287,2.287,0,0,1,.875-4.4" transform="translate(-561)" fill="#EFBE60"/></g></svg>