<svg xmlns="http://www.w3.org/2000/svg" width="559.006" height="150" viewBox="0 0 559.006 150"><g transform="translate(-20.4 -240.8)"><path d="M411.618,257.127l8.1-9.833-62.039-.186s-25.989,8.349-37.075,11.967L313.436,240.8H311.48l-7.266,18.275c-11.085-3.525-37.075-11.967-37.075-11.967l-62.039.186,8.1,9.833,58.5-1.948.373.649-54.4,2.6,8.1,8.813,50.116-4.824.373.649-45.458,5.751,9.5,7.978,39.59-7.514.373.557-35.025,7.885,6.8,5.844,31.392-8.349.466.742L269.748,280.6l5.869,5.1L286.7,282.08l7.639,1.113-5.775,14.564H298.9l5.4-13.636,5.4,13.636h4.751l5.4-13.636,5.4,13.636h10.34l-5.775-14.564,7.639-1.113,11.085,3.618,5.869-5.1-14.159-4.638.466-.742,31.392,8.349,6.8-5.844L343.9,269.835l.373-.557,39.59,7.514,9.5-7.978L347.9,263.063l.373-.649,50.116,4.824,8.1-8.813-54.4-2.6.373-.649M312.5,291.264l-5.31-13.451,5.31-13.451,5.31,13.451Z" transform="translate(-12.648 0)" fill="#fff"/><path d="M41.732,367.011H30.554l-.093-20.223H41.639V336.677L20.4,336.77l.093,60.482H30.647l-.093-20.13H41.732m47.414-41.466-24.22,61.6h10.9L90.171,360.7l14.439,36.549H115.6l-24.5-61.41H89.146ZM170.1,356.621A20.253,20.253,0,0,0,149.788,336.4h-21.8l.093,60.482h10.154l-.093-50.464h11.644a10.065,10.065,0,1,1,0,20.13h-9.315l7.638,10.019,14.625,20.13h12.389l-16.208-22.356A19.325,19.325,0,0,0,170.1,356.621m17.14,40.26H197.3L197.2,336.4H187.049Zm45.738-60.668H220.584l-19.283,26.9-2.049,2.69,1.3,1.762L221.7,396.7h12.389l-22.357-30.891Zm85.141,57.421L294.826,335.1h-2.049l-24.22,61.6,10.992-.093,14.345-36.549L308.333,396.6h9.781Zm-.093-57.607V339l-1.211-2.969ZM42.757,367.011H41.732V377.03h1.025a20.177,20.177,0,1,0-.186-40.353H41.546v10.111H42.57A10.216,10.216,0,0,1,52.724,356.9a10,10,0,0,1-9.967,10.111M579.22,345.582V335.471l-30.368.093.186,60.575,30.368-.093V385.935H559.192l-.093-15.4h16.395V360.425l-16.395.093V345.675Zm-60.176,28.479c0,8.813-4.564,13.08-10.06,13.08-5.589,0-10.154-4.267-10.154-13.08l-.093-38.4H488.583l.093,38.4c.093,14.935,9.129,23.191,20.307,23.1,11.178,0,20.307-8.256,20.307-23.191l-.093-38.4H518.951Zm-58.127.371-23.94-38.59h-7.545l.093,60.482h9.129l-.093-38.59,23.847,38.59h7.639l-.093-60.482h-9.129Zm-80.67,21.985,30.368-.093V386.306H390.4l-.093-15.4,16.395-.093V360.7l-16.395.093V345.953h20.214V335.842l-30.368.093Zm-62.226-57.328,23.288,58.534h1.956l24.22-61.6h-10.9L342.241,372.67,327.8,336.12h-9.781Zm.093,57.514v-2.969l1.211,2.969Z" transform="translate(0 -6.823)" fill="#fff"/></g></svg>