<svg xmlns="http://www.w3.org/2000/svg" xmlns:xlink="http://www.w3.org/1999/xlink" width="1000" height="369.328" viewBox="0 0 1000 369.328"><defs><linearGradient id="a" y1="0.5" x2="1" y2="0.5" gradientUnits="objectBoundingBox"><stop offset="0" stop-color="#c09129"/><stop offset="0.239" stop-color="#c79e49"/><stop offset="0.485" stop-color="#f1c062"/><stop offset="0.725" stop-color="#dfb257"/><stop offset="1" stop-color="#c79e49"/></linearGradient></defs><g transform="translate(-460 -317.699)"><path d="M877.776,345.726c-6.467,1.149-12.97,3.022-19.643,2.666-.55-.027-1.1-.08-1.637-.15-.515,10.861,13.121,9.437,20.85,7.029,10.066-2.548,25.789-7.928,37.262-4.731C906.3,338.8,888.089,343.9,877.776,345.726Z" fill="url(#a)"/><path d="M907.222,352.688c-6.454.557-13.53,2.432-19.4,3.847-6.49,1.529-12.994,3.821-19.8,3.588-.484-.02-.967-.057-1.445-.11,1.122,11.186,11.211,10.257,19.88,6.709,9.42-3.382,24.654-9.823,36.766-9.545a20.743,20.743,0,0,1-1.942-1.052A23.223,23.223,0,0,0,907.222,352.688Z" fill="url(#a)"/><path d="M875.281,371.841c-4.823-.705-8.184-3.7-8.962-8.1-4.378,4.773-11.265,6.629-17.555,6.946a36.922,36.922,0,0,1-15.745-2.887l.039.053c3.8,5.068,10.512,9.031,16.841,9.282C858.182,377.466,868.425,376.332,875.281,371.841Z" fill="url(#a)"/><path d="M830.485,344.268a66.156,66.156,0,0,0,18.218.754,7.751,7.751,0,0,1-2.326-8.107c-8.371.59-16.713.116-23.8-2.8a16.61,16.61,0,0,1-8.647-7.809c.241,1.07.52,2.223.841,3.45A19.823,19.823,0,0,0,830.485,344.268Z" fill="url(#a)"/><path d="M869.229,333.528a204.138,204.138,0,0,1-22.4,3.355c-.213,10.425,12.984,8.915,20.661,7.009,11.389-2.387,30.118-7.4,41.2-.465C897.88,326.01,880.985,331.37,869.229,333.528Z" fill="url(#a)"/><path d="M857.03,355.239a8,8,0,0,1-.884-7.046,15.732,15.732,0,0,1-6.047-2.122c-9.789,3.91-24.428,3.508-31.555-4.624q.369.957.766,1.937a21.757,21.757,0,0,0,17.208,13.047C844.891,357.478,851.334,356.3,857.03,355.239Z" fill="url(#a)"/><path d="M866.255,363.335a12.542,12.542,0,0,1,.01-3.363c-3.681-.468-7.069-1.928-8.965-4.365-8.9,6-22.7,5.144-31.8.1-.145-.082-.288-.166-.432-.249l.058.106c3.912,7.058,11.621,12.261,19.69,12.382C851.883,368.049,860.178,366.493,866.255,363.335Z" fill="url(#a)"/><path d="M829.764,332.831c8.541,1.09,17.292.149,25.865-.813,7.527-.887,15.487-2.1,23.025-2.661,8.526-1.116,17.847-.856,23.786,5.306-6.484-9.283-12.5-17.547-18.9-16.817-20.853,2.376-58.81,10.308-71.094-.145,0-.025.02.206.075.668C813.988,327.621,820.723,331.761,829.764,332.831Z" fill="url(#a)"/><path d="M1042.654,355.271c7.729,2.408,21.365,3.831,20.85-7.03-.54.071-1.087.123-1.637.151-6.673.356-13.176-1.517-19.643-2.666-10.313-1.823-28.525-6.928-36.832,4.814C1016.865,347.343,1032.588,352.723,1042.654,355.271Z" fill="url(#a)"/><path d="M1033.539,366.722c8.669,3.548,18.758,4.477,19.88-6.709-.478.053-.961.09-1.445.11-6.8.233-13.308-2.059-19.8-3.589-5.868-1.414-12.944-3.29-19.4-3.846a23.217,23.217,0,0,0-14.063,3.437,20.743,20.743,0,0,1-1.942,1.052C1008.885,356.9,1024.119,363.34,1033.539,366.722Z" fill="url(#a)"/><path d="M1071.236,370.689c-6.29-.317-13.177-2.173-17.555-6.947-.778,4.4-4.139,7.394-8.962,8.1,23.063,10.575,38.424,1.083,42.223-3.985l.039-.053A36.922,36.922,0,0,1,1071.236,370.689Z" fill="url(#a)"/><path d="M1097.423,334.117c-7.087,2.914-15.429,3.388-23.8,2.8a7.752,7.752,0,0,1-2.326,8.107,66.156,66.156,0,0,0,18.218-.754,19.824,19.824,0,0,0,15.714-14.509c.321-1.227.6-2.38.841-3.45A16.6,16.6,0,0,1,1097.423,334.117Z" fill="url(#a)"/><path d="M1052.509,343.892c7.677,1.906,20.874,3.416,20.661-7.009a204.141,204.141,0,0,1-22.4-3.355c-11.756-2.158-28.651-7.518-39.461,9.9C1022.391,336.49,1041.12,341.505,1052.509,343.892Z" fill="url(#a)"/><path d="M1069.9,346.071a15.732,15.732,0,0,1-6.047,2.122,7.994,7.994,0,0,1-.884,7.045c29.28,4.547,34.876-4.849,37.72-11.854q.4-.98.766-1.937C1094.329,349.579,1079.69,349.981,1069.9,346.071Z" fill="url(#a)"/><path d="M1062.7,355.607c-1.9,2.437-5.284,3.9-8.965,4.365a12.545,12.545,0,0,1,.01,3.363c32.282,10.17,39.243-4.363,41.187-7.88-.144.083-.287.167-.432.249C1085.4,360.751,1071.6,361.605,1062.7,355.607Z" fill="url(#a)"/><path d="M1043.584,371.964c-.455.031-.92.045-1.4.037-6.566-.028-12.788-2.892-18.9-4.881-9.7-3.193-24.527-9.651-34.873-7.913a24.39,24.39,0,0,1-14.2.71c-.222-.059-.438-.138-.658-.206a10.026,10.026,0,0,0,.953.832c1.035.84,5.934,3.005,7.184,3.682-4.505.147-10.327,1.1-14.927-.428-.434,4-2.557,8.122-6.772,8.6,3.474-4.518,2.885-10.656,3.148-16.007,0,0,2.838,4.679,7.525,4.609a15.473,15.473,0,0,1-2.232-4.121l-1.484-4.275,3.524,2.738c4.354,3.4,9.993,4.32,15.446,3.849a12.97,12.97,0,0,1-11.409-9.537c-1.49-5.536-1.715-10.109.325-14.673,4.2-9.393,12.945-3.627,12.945-3.627,0-8.282-12.38-9.375-12.38-9.375-1.656-5.2-8.213-4.1-14.133-2.265-8.123,2.513-12.226-.753-12.226-.753-.191,1.239.655,2.339,1.861,3.253a10.431,10.431,0,0,0,6.845,2.02,12.8,12.8,0,0,0,2.339-.338c2.937-.7,7.493-2.36,10.137-.211-1.759.512-2.84,1.481-4.419,2.261a19.339,19.339,0,0,1-4.208,1.624,9.675,9.675,0,0,1-7.763-1.271c-9.255,3.7-9.306,32.945-21.326,32.628,5.911.844,12.232.137,17-3.59l3.554-2.765a53.229,53.229,0,0,1-2.522,6.567,14.68,14.68,0,0,1-1.184,1.822c4.212.479,7.505-4.6,7.505-4.6.221,5.368-.253,11.461,3.131,16.032h0c-4.215-.48-6.338-4.6-6.772-8.6-4.6,1.529-10.422.575-14.927.428,1.25-.677,6.149-2.842,7.184-3.682a10.026,10.026,0,0,0,.953-.832c-.22.068-.436.147-.658.206a24.39,24.39,0,0,1-14.2-.71c-10.346-1.737-25.171,4.72-34.873,7.913-6.109,1.989-12.331,4.854-18.9,4.881q-.714.012-1.4-.037c-3.747,5.8-12.246,7.949-18.719,8.07a43.027,43.027,0,0,1-17.462-3.542l.077.084a30.305,30.305,0,0,0,18.509,9.477,82.114,82.114,0,0,0,10.359.734c5.883-.128,12.213-.852,16.883-4.795-4.217-1.183-7.162-4.346-6.03-10.062.3,9.464,9.291,9.032,16.06,6.366,11.3-5.29,23.038-11.839,35.9-11.87-9.587,3.472-18.289,8.014-27.55,12.182-3.513,1.515-7.228,3.3-11.169,3.7a17.66,17.66,0,0,1-7.013-.269c-1.535,3.425-5.046,5.693-8.464,6.982a29.4,29.4,0,0,1-11.393,1.641,45.307,45.307,0,0,1-14.058-2.948l.091.072a38.855,38.855,0,0,0,26.471,8.47c7.669-.479,14.325-2.824,19.185-7.024-3.244,7.108-11.7,10.387-19.085,10.623-.478,0-1.683.056-2.143.06-1.319-.115-3.642-.226-4.932-.485-.786-.133-1.566-.3-2.343-.477l.1.053a39.859,39.859,0,0,0,36.254.606,46.783,46.783,0,0,0,5.857-3.45,19.366,19.366,0,0,1-7.035,7.427,27.007,27.007,0,0,1-14.375,4.12q1.984.644,4.04,1.241c13.977,2.226,23.124-2.557,31.7-8.291a26.6,26.6,0,0,1-17.162,11.786c.508.1,15.953,3.294,26.375-9.17-.743,5.29-5.031,9.637-9.988,11.533.359.035.73.062,1.092.1,7.615,0,14.225-4.679,20.13-9.116a28.876,28.876,0,0,1-7.994,8.776c3.438-.323,6.931-.663,10.075-2.008,4.485-1.918,5.7-4.465,5.765-4.6A30.382,30.382,0,0,1,960,421.85c-4.523-1.551-7.1-7.084-6.248-11.741-2.068,4.185-7.506,6.1-11.756,7.243-.387.1-.776.175-1.164.26a12.346,12.346,0,0,1,2.223,18.519c-.092.1-.185.2-.281.3,0,0,7.342-1.22,10.092-6.71,0,0,1.826,7.186-11.052,29.565-8.44,14.666-.643,30.888-.643,30.888a56.047,56.047,0,0,1,5.683-13.519c5.1-8.324,8.706-10.883,8.71-10.868-7.205,32.99-7.908,34.95-7.908,34.95,7.9.235,12,4.183,12.157,13.995h.493c.156-9.812,4.26-13.76,12.157-13.995,0,0-.7-1.96-7.908-34.95a59.958,59.958,0,0,1,8.468,10.908,75.194,75.194,0,0,1,5.924,13.479s7.8-16.222-.643-30.888c-12.878-22.379-11.052-29.565-11.052-29.565,2.751,5.49,10.092,6.71,10.092,6.71-.095-.1-.189-.2-.281-.3-5.654-6.228-5.514-15.485.235-19.1-4.035-1.179-8.721-3.1-10.607-6.918.852,4.655-1.725,10.189-6.248,11.74,0,0,.87-9.2,5.133-13.893a19.208,19.208,0,0,0,5.765,4.6c3.147,1.338,6.637,1.685,10.075,2.008a28.876,28.876,0,0,1-7.994-8.776c5.905,4.437,12.515,9.114,20.13,9.116.362-.034.733-.06,1.092-.1-4.957-1.9-9.245-6.243-9.988-11.533,10.422,12.465,25.867,9.268,26.375,9.171a26.6,26.6,0,0,1-17.162-11.786c8.575,5.734,17.722,10.517,31.7,8.291q2.052-.6,4.04-1.241a27.007,27.007,0,0,1-14.375-4.12,19.366,19.366,0,0,1-7.035-7.427,46.783,46.783,0,0,0,5.857,3.45,39.859,39.859,0,0,0,36.254-.606l.1-.053c-.777.179-1.557.344-2.343.477-1.29.258-3.613.37-4.932.485-.46-.005-1.665-.057-2.143-.061-7.387-.235-15.841-3.515-19.085-10.622,4.859,4.2,11.516,6.545,19.184,7.024a38.853,38.853,0,0,0,26.472-8.471l.091-.072a45.279,45.279,0,0,1-14.058,2.949,29.42,29.42,0,0,1-11.393-1.641c-3.418-1.289-6.929-3.557-8.464-6.982a17.66,17.66,0,0,1-7.013.269c-3.941-.408-7.656-2.19-11.169-3.7-9.261-4.168-17.963-8.71-27.55-12.182,12.863.031,24.6,6.58,35.9,11.87,6.769,2.666,15.76,3.1,16.06-6.366,1.132,5.716-1.813,8.879-6.03,10.062,4.67,3.943,11,4.666,16.883,4.795a81.96,81.96,0,0,0,10.361-.735,30.3,30.3,0,0,0,18.507-9.477l.077-.083a43.027,43.027,0,0,1-17.462,3.542C1055.83,379.913,1047.331,377.768,1043.584,371.964ZM945.48,388.8a25.535,25.535,0,0,1-16.492,9.143,44.424,44.424,0,0,0,2.625-15.239c-5.687,2.374-16.785,6.738-20.806,4.684,4.557,1.487,18.441-6.4,23.069-8.713a38.438,38.438,0,0,1-.251,14.649,21.967,21.967,0,0,0,10.6-9.255l1.752-3.041a138.613,138.613,0,0,0,6.777,12.695c1.964,3.056,3.849,6.054,7.048,8.051C953.461,401.438,948.408,394.681,945.48,388.8Zm16.543,77.378a349.738,349.738,0,0,1-1.974,40.015,349.5,349.5,0,0,1-1.975-40.015,353.2,353.2,0,0,1,1.974-40.015A353.179,353.179,0,0,1,962.023,466.178Zm47.17-78.79c-4.021,2.054-15.119-2.31-20.806-4.684a44.424,44.424,0,0,0,2.625,15.239A25.535,25.535,0,0,1,974.52,388.8c-2.918,5.862-7.948,12.591-14.257,12.968v-.038c3.158-2,5.034-4.972,6.985-8.007a138.613,138.613,0,0,0,6.777-12.695l1.752,3.041a21.96,21.96,0,0,0,10.6,9.254,38.438,38.438,0,0,1-.251-14.649C990.752,380.99,1004.636,388.875,1009.193,387.388Z" fill="url(#a)"/><path d="M1036.456,317.845c-6.4-.729-12.412,7.535-18.9,16.817,5.939-6.161,15.26-6.421,23.786-5.3,7.538.561,15.5,1.774,23.025,2.661,8.573.962,17.324,1.9,25.865.813,9.041-1.07,15.776-5.211,17.239-14.462.055-.462.075-.693.075-.668C1095.266,328.154,1057.309,320.221,1036.456,317.845Z" fill="url(#a)"/><path d="M551.475,676.835c-7.69,0-12.8-5.384-18.717-11.615-5.838-6.15-12.4-13.057-22.924-16.482h8.974c21.607,0,36.7-14.779,36.7-35.94s-15.091-35.938-36.7-35.938H460.5c-.165,0-.332-.005-.5,0l.009.772h.5a7.72,7.72,0,0,1,5.386,2.2,12.074,12.074,0,0,1,3.147,8.657v84.478c0,5.155-2.828,10.706-9.034,10.706v.771h28.716v-.771c-6.032,0-9.187-5.386-9.187-10.706V648.884l8.427-.146c13.4,0,20.792,1.842,29.171,12.765,1.379,1.773,2.722,3.692,4.145,5.722,6.1,8.71,13.021,18.585,24.724,18.585,11.357,0,19.953-8.846,20.441-21.034l.1-2.46-.845,2.312C564.65,667.492,560.529,676.835,551.475,676.835Zm-71.937-30.693V586.211c0-4.482,1.966-6.755,5.844-6.755h25.981c19.275,0,32.737,13.711,32.737,33.342s-13.462,33.344-32.737,33.344Z" fill="url(#a)"/><path d="M597.879,582.938a5.949,5.949,0,0,1,5.076-2.659h47.123a17.264,17.264,0,0,1,8.334,1.964,16.51,16.51,0,0,1,8,10.575l.166.63.747-.192c-.052-.208-.106-.413-.163-.617l-4.168-15.78H576.853v.772c6.031,0,9.187,5.462,9.187,10.857v84.478c0,5.19-3.22,10.706-9.187,10.706v.771h86.142l4.165-15.77c.058-.208.113-.417.166-.63l-.747-.191-.17.643a17.039,17.039,0,0,1-6.659,9.85,16.517,16.517,0,0,1-9.417,2.729H602.97a5.954,5.954,0,0,1-5.09-2.683,10.416,10.416,0,0,1-1.5-5.425V628.682h41.549c5.32,0,10.705,3.051,10.705,8.883h.771V617.054h-.771c0,5.654-5.064,8.685-10.221,8.865H596.384v-37.43A10.588,10.588,0,0,1,597.879,582.938Zm48.675,98.908c-.039,0-.075,0-.114,0H603.9l-.051,0Z" fill="url(#a)"/><path d="M756.751,634.606c6.346,0,9.187,5.454,9.187,10.859V667.83c-4.282,6.135-14.6,16.3-35.928,16.3-14.369,0-26.608-5.482-35.392-15.856-8.184-9.664-12.69-22.942-12.69-37.393,0-14.529,4.507-27.884,12.691-37.6,8.785-10.435,21.024-15.95,35.391-15.95,9.517,0,26.432,3.258,34.027,12.236a15.538,15.538,0,0,1,3.577,13.145l-.519,3.086,6.065-13.888-.174-.185c-10.661-11.372-25.119-17.139-42.976-17.139-16.347,0-31.272,5.487-42.025,15.448-11.226,10.4-17.16,24.63-17.16,41.153,0,16.461,5.954,30.562,17.22,40.777,10.714,9.717,25.617,15.067,41.965,15.067a66.648,66.648,0,0,0,34.054-8.853,11.125,11.125,0,0,1,4.69-1.48,4.934,4.934,0,0,1,3.692,1.558,8.3,8.3,0,0,1,2,5.94l-.017.4h1.4v-39.13c0-5.405,2.841-10.859,9.187-10.859v-.771H756.751Z" fill="url(#a)"/><path d="M794.439,577.246v.386c6.206,0,9.033,5.628,9.033,10.857v84.478c0,5.155-2.827,10.706-9.033,10.706v.771h28.715v-.771c-6.313,0-9.187-5.551-9.187-10.706V588.489c0-5.229,2.874-10.857,9.187-10.857v-.772H794.439Z" fill="url(#a)"/><path d="M890.8,574.295c-34.109.81-58.3,25.068-57.529,57.679s26.092,55.7,60.2,54.885c34.2-.811,58.453-25.071,57.679-57.683S924.994,573.483,890.8,574.295Zm2.617,110.274c-31.258.742-48.259-26.108-48.9-53.013-.635-26.755,15.076-54.229,46.335-54.971s48.257,25.955,48.892,52.71C940.383,656.2,924.675,683.827,893.416,684.569Z" fill="url(#a)"/><path d="M1003.664,577.632c6.209,0,9.036,5.628,9.036,10.857v84.478c0,5.155-2.827,10.706-9.036,10.706v.771h28.716v-.771c-6.311,0-9.185-5.551-9.185-10.706V588.489c0-5.229,2.874-10.857,9.185-10.857v-.772h-28.716Z" fill="url(#a)"/><path d="M1127.04,579.151c11.006,0,17.58,4.575,20.1,13.986l.042.161.747-.2v0l0,0c-.013-.05-.025-.1-.039-.148L1143.671,577l-.077-.287h-92.058l-4.482,16.384,0,0,.744.205c2.623-9.523,9.261-14.151,20.292-14.151h24.229v93.51a11.738,11.738,0,0,1-3.166,8.424,8.043,8.043,0,0,1-5.535,2.282h-.487l-.009.771q.129,0,.258,0c.084,0,.167,0,.251,0h27.87c.17,0,.339,0,.509,0l-.009-.771h-.487a8.04,8.04,0,0,1-5.535-2.282,11.737,11.737,0,0,1-3.166-8.424v-93.51Z" fill="url(#a)"/><path d="M1237.4,675.241l-44.517-100.127-.356-.8-44.564,101.532a14.617,14.617,0,0,1-10.931,7.826l.04.77h18.689l.021-.771h0a5.2,5.2,0,0,1-4.441-7.3l10.239-23.076h55.313l10.1,22.6a5.3,5.3,0,0,1,.7,2.537c0,2.955-3.032,5.094-5.863,5.237l.019.771h26.589l.05-.768C1244.069,683.106,1239.4,679.556,1237.4,675.241Zm-21.938-24.922H1162.9l26.049-58.7Z" fill="url(#a)"/><path d="M1333.685,651.917c-6.348,0-9.188-5.452-9.188-10.856V587.882c0-5.156,2.875-10.707,9.188-10.707V576.4h-28.716v.771c6.311,0,9.184,5.551,9.184,10.707v53.179c0,5.4-2.84,10.856-9.184,10.856v.771h28.716Z" fill="url(#a)"/><path d="M1329.919,680.558h-43.684a7.852,7.852,0,0,1-7.926-7.657V588.338c0-5.4,2.84-10.858,9.188-10.858v-.771h-28.719v.771c4.265,0,9.035,3.734,9.035,8.731v88.73c0,5-4.77,8.732-9.035,8.732v.771h81.428l4.486-16.391-.744-.2c-1.491,5.415-4.253,9.163-8.451,11.381A11.943,11.943,0,0,1,1329.919,680.558Z" fill="url(#a)"/><path d="M1448.908,675.241l-44.517-100.127-.356-.8-44.564,101.532a14.617,14.617,0,0,1-10.931,7.826l.039.77h18.691l.021-.771-.072,0a5.092,5.092,0,0,1-4.114-7.2l10.284-23.177H1428.4l10.1,22.6a5.3,5.3,0,0,1,.7,2.537c0,2.955-3.032,5.094-5.863,5.237l.019.771h26.589l.05-.768C1455.579,683.106,1450.913,679.556,1448.908,675.241Zm-74.2-24.922,25.9-58.367,26.361,58.367Z" fill="url(#a)"/></g></svg>