<svg xmlns="http://www.w3.org/2000/svg" xmlns:xlink="http://www.w3.org/1999/xlink" width="295.1" height="197.038" viewBox="0 0 295.1 197.038"><defs><linearGradient id="a" y1="0.5" x2="1" y2="0.5" gradientUnits="objectBoundingBox"><stop offset="0" stop-color="#c09129"/><stop offset="0.239" stop-color="#c79e49"/><stop offset="0.485" stop-color="#f1c062"/><stop offset="0.725" stop-color="#dfb257"/><stop offset="1" stop-color="#c79e49"/></linearGradient></defs><g transform="translate(-812.45 -317.699)"><path d="M877.776,345.726c-6.467,1.149-12.97,3.022-19.643,2.666-.55-.027-1.1-.08-1.637-.15-.515,10.861,13.121,9.437,20.85,7.029,10.066-2.548,25.789-7.928,37.262-4.731C906.3,338.8,888.089,343.9,877.776,345.726Z" fill="url(#a)"/><path d="M907.222,352.688c-6.454.557-13.53,2.432-19.4,3.847-6.49,1.529-12.994,3.821-19.8,3.588-.484-.02-.967-.057-1.445-.11,1.122,11.186,11.211,10.257,19.88,6.709,9.42-3.382,24.654-9.823,36.766-9.545a20.743,20.743,0,0,1-1.942-1.052A23.223,23.223,0,0,0,907.222,352.688Z" fill="url(#a)"/><path d="M875.281,371.841c-4.823-.705-8.184-3.7-8.962-8.1-4.378,4.773-11.265,6.629-17.555,6.946a36.922,36.922,0,0,1-15.745-2.887l.039.053c3.8,5.068,10.512,9.031,16.841,9.282C858.182,377.466,868.425,376.332,875.281,371.841Z" fill="url(#a)"/><path d="M830.485,344.268a66.156,66.156,0,0,0,18.218.754,7.751,7.751,0,0,1-2.326-8.107c-8.371.59-16.713.116-23.8-2.8a16.61,16.61,0,0,1-8.647-7.809c.241,1.07.52,2.223.841,3.45A19.823,19.823,0,0,0,830.485,344.268Z" fill="url(#a)"/><path d="M869.229,333.528a204.138,204.138,0,0,1-22.4,3.355c-.213,10.425,12.984,8.915,20.661,7.009,11.389-2.387,30.118-7.4,41.2-.465C897.88,326.01,880.985,331.37,869.229,333.528Z" fill="url(#a)"/><path d="M857.03,355.239a8,8,0,0,1-.884-7.046,15.732,15.732,0,0,1-6.047-2.122c-9.789,3.91-24.428,3.508-31.555-4.624q.369.957.766,1.937a21.757,21.757,0,0,0,17.208,13.047C844.891,357.478,851.334,356.3,857.03,355.239Z" fill="url(#a)"/><path d="M866.255,363.335a12.542,12.542,0,0,1,.01-3.363c-3.681-.468-7.069-1.928-8.965-4.365-8.9,6-22.7,5.144-31.8.1-.145-.082-.288-.166-.432-.249l.058.106c3.912,7.058,11.621,12.261,19.69,12.382C851.883,368.049,860.178,366.493,866.255,363.335Z" fill="url(#a)"/><path d="M829.764,332.831c8.541,1.09,17.292.149,25.865-.813,7.527-.887,15.487-2.1,23.025-2.661,8.526-1.116,17.847-.856,23.786,5.306-6.484-9.283-12.5-17.547-18.9-16.817-20.853,2.376-58.81,10.308-71.094-.145,0-.025.02.206.075.668C813.988,327.621,820.723,331.761,829.764,332.831Z" fill="url(#a)"/><path d="M1042.654,355.271c7.729,2.408,21.365,3.831,20.85-7.03-.54.071-1.087.123-1.637.151-6.673.356-13.176-1.517-19.643-2.666-10.313-1.823-28.525-6.928-36.832,4.814C1016.865,347.343,1032.588,352.723,1042.654,355.271Z" fill="url(#a)"/><path d="M1033.539,366.722c8.669,3.548,18.758,4.477,19.88-6.709-.478.053-.961.09-1.445.11-6.8.233-13.308-2.059-19.8-3.589-5.868-1.414-12.944-3.29-19.4-3.846a23.217,23.217,0,0,0-14.063,3.437,20.743,20.743,0,0,1-1.942,1.052C1008.885,356.9,1024.119,363.34,1033.539,366.722Z" fill="url(#a)"/><path d="M1071.236,370.689c-6.29-.317-13.177-2.173-17.555-6.947-.778,4.4-4.139,7.394-8.962,8.1,23.063,10.575,38.424,1.083,42.223-3.985l.039-.053A36.922,36.922,0,0,1,1071.236,370.689Z" fill="url(#a)"/><path d="M1097.423,334.117c-7.087,2.914-15.429,3.388-23.8,2.8a7.752,7.752,0,0,1-2.326,8.107,66.156,66.156,0,0,0,18.218-.754,19.824,19.824,0,0,0,15.714-14.509c.321-1.227.6-2.38.841-3.45A16.6,16.6,0,0,1,1097.423,334.117Z" fill="url(#a)"/><path d="M1052.509,343.892c7.677,1.906,20.874,3.416,20.661-7.009a204.141,204.141,0,0,1-22.4-3.355c-11.756-2.158-28.651-7.518-39.461,9.9C1022.391,336.49,1041.12,341.505,1052.509,343.892Z" fill="url(#a)"/><path d="M1069.9,346.071a15.732,15.732,0,0,1-6.047,2.122,7.994,7.994,0,0,1-.884,7.045c29.28,4.547,34.876-4.849,37.72-11.854q.4-.98.766-1.937C1094.329,349.579,1079.69,349.981,1069.9,346.071Z" fill="url(#a)"/><path d="M1062.7,355.607c-1.9,2.437-5.284,3.9-8.965,4.365a12.545,12.545,0,0,1,.01,3.363c32.282,10.17,39.243-4.363,41.187-7.88-.144.083-.287.167-.432.249C1085.4,360.751,1071.6,361.605,1062.7,355.607Z" fill="url(#a)"/><path d="M1043.584,371.964c-.455.031-.92.045-1.4.037-6.566-.028-12.788-2.892-18.9-4.881-9.7-3.193-24.527-9.651-34.873-7.913a24.39,24.39,0,0,1-14.2.71c-.222-.059-.438-.138-.658-.206a10.026,10.026,0,0,0,.953.832c1.035.84,5.934,3.005,7.184,3.682-4.505.147-10.327,1.1-14.927-.428-.434,4-2.557,8.122-6.772,8.6,3.474-4.518,2.885-10.656,3.148-16.007,0,0,2.838,4.679,7.525,4.609a15.473,15.473,0,0,1-2.232-4.121l-1.484-4.275,3.524,2.738c4.354,3.4,9.993,4.32,15.446,3.849a12.97,12.97,0,0,1-11.409-9.537c-1.49-5.536-1.715-10.109.325-14.673,4.2-9.393,12.945-3.627,12.945-3.627,0-8.282-12.38-9.375-12.38-9.375-1.656-5.2-8.213-4.1-14.133-2.265-8.123,2.513-12.226-.753-12.226-.753-.191,1.239.655,2.339,1.861,3.253a10.431,10.431,0,0,0,6.845,2.02,12.8,12.8,0,0,0,2.339-.338c2.937-.7,7.493-2.36,10.137-.211-1.759.512-2.84,1.481-4.419,2.261a19.339,19.339,0,0,1-4.208,1.624,9.675,9.675,0,0,1-7.763-1.271c-9.255,3.7-9.306,32.945-21.326,32.628,5.911.844,12.232.137,17-3.59l3.554-2.765a53.229,53.229,0,0,1-2.522,6.567,14.68,14.68,0,0,1-1.184,1.822c4.212.479,7.505-4.6,7.505-4.6.221,5.368-.253,11.461,3.131,16.032h0c-4.215-.48-6.338-4.6-6.772-8.6-4.6,1.529-10.422.575-14.927.428,1.25-.677,6.149-2.842,7.184-3.682a10.026,10.026,0,0,0,.953-.832c-.22.068-.436.147-.658.206a24.39,24.39,0,0,1-14.2-.71c-10.346-1.737-25.171,4.72-34.873,7.913-6.109,1.989-12.331,4.854-18.9,4.881q-.714.012-1.4-.037c-3.747,5.8-12.246,7.949-18.719,8.07a43.027,43.027,0,0,1-17.462-3.542l.077.084a30.305,30.305,0,0,0,18.509,9.477,82.114,82.114,0,0,0,10.359.734c5.883-.128,12.213-.852,16.883-4.795-4.217-1.183-7.162-4.346-6.03-10.062.3,9.464,9.291,9.032,16.06,6.366,11.3-5.29,23.038-11.839,35.9-11.87-9.587,3.472-18.289,8.014-27.55,12.182-3.513,1.515-7.228,3.3-11.169,3.7a17.66,17.66,0,0,1-7.013-.269c-1.535,3.425-5.046,5.693-8.464,6.982a29.4,29.4,0,0,1-11.393,1.641,45.307,45.307,0,0,1-14.058-2.948l.091.072a38.855,38.855,0,0,0,26.471,8.47c7.669-.479,14.325-2.824,19.185-7.024-3.244,7.108-11.7,10.387-19.085,10.623-.478,0-1.683.056-2.143.06-1.319-.115-3.642-.226-4.932-.485-.786-.133-1.566-.3-2.343-.477l.1.053a39.859,39.859,0,0,0,36.254.606,46.783,46.783,0,0,0,5.857-3.45,19.366,19.366,0,0,1-7.035,7.427,27.007,27.007,0,0,1-14.375,4.12q1.984.644,4.04,1.241c13.977,2.226,23.124-2.557,31.7-8.291a26.6,26.6,0,0,1-17.162,11.786c.508.1,15.953,3.294,26.375-9.17-.743,5.29-5.031,9.637-9.988,11.533.359.035.73.062,1.092.1,7.615,0,14.225-4.679,20.13-9.116a28.876,28.876,0,0,1-7.994,8.776c3.438-.323,6.931-.663,10.075-2.008,4.485-1.918,5.7-4.465,5.765-4.6A30.382,30.382,0,0,1,960,421.85c-4.523-1.551-7.1-7.084-6.248-11.741-2.068,4.185-7.506,6.1-11.756,7.243-.387.1-.776.175-1.164.26a12.346,12.346,0,0,1,2.223,18.519c-.092.1-.185.2-.281.3,0,0,7.342-1.22,10.092-6.71,0,0,1.826,7.186-11.052,29.565-8.44,14.666-.643,30.888-.643,30.888a56.047,56.047,0,0,1,5.683-13.519c5.1-8.324,8.706-10.883,8.71-10.868-7.205,32.99-7.908,34.95-7.908,34.95,7.9.235,12,4.183,12.157,13.995h.493c.156-9.812,4.26-13.76,12.157-13.995,0,0-.7-1.96-7.908-34.95a59.958,59.958,0,0,1,8.468,10.908,75.194,75.194,0,0,1,5.924,13.479s7.8-16.222-.643-30.888c-12.878-22.379-11.052-29.565-11.052-29.565,2.751,5.49,10.092,6.71,10.092,6.71-.095-.1-.189-.2-.281-.3-5.654-6.228-5.514-15.485.235-19.1-4.035-1.179-8.721-3.1-10.607-6.918.852,4.655-1.725,10.189-6.248,11.74,0,0,.87-9.2,5.133-13.893a19.208,19.208,0,0,0,5.765,4.6c3.147,1.338,6.637,1.685,10.075,2.008a28.876,28.876,0,0,1-7.994-8.776c5.905,4.437,12.515,9.114,20.13,9.116.362-.034.733-.06,1.092-.1-4.957-1.9-9.245-6.243-9.988-11.533,10.422,12.465,25.867,9.268,26.375,9.171a26.6,26.6,0,0,1-17.162-11.786c8.575,5.734,17.722,10.517,31.7,8.291q2.052-.6,4.04-1.241a27.007,27.007,0,0,1-14.375-4.12,19.366,19.366,0,0,1-7.035-7.427,46.783,46.783,0,0,0,5.857,3.45,39.859,39.859,0,0,0,36.254-.606l.1-.053c-.777.179-1.557.344-2.343.477-1.29.258-3.613.37-4.932.485-.46-.005-1.665-.057-2.143-.061-7.387-.235-15.841-3.515-19.085-10.622,4.859,4.2,11.516,6.545,19.184,7.024a38.853,38.853,0,0,0,26.472-8.471l.091-.072a45.279,45.279,0,0,1-14.058,2.949,29.42,29.42,0,0,1-11.393-1.641c-3.418-1.289-6.929-3.557-8.464-6.982a17.66,17.66,0,0,1-7.013.269c-3.941-.408-7.656-2.19-11.169-3.7-9.261-4.168-17.963-8.71-27.55-12.182,12.863.031,24.6,6.58,35.9,11.87,6.769,2.666,15.76,3.1,16.06-6.366,1.132,5.716-1.813,8.879-6.03,10.062,4.67,3.943,11,4.666,16.883,4.795a81.96,81.96,0,0,0,10.361-.735,30.3,30.3,0,0,0,18.507-9.477l.077-.083a43.027,43.027,0,0,1-17.462,3.542C1055.83,379.913,1047.331,377.768,1043.584,371.964ZM945.48,388.8a25.535,25.535,0,0,1-16.492,9.143,44.424,44.424,0,0,0,2.625-15.239c-5.687,2.374-16.785,6.738-20.806,4.684,4.557,1.487,18.441-6.4,23.069-8.713a38.438,38.438,0,0,1-.251,14.649,21.967,21.967,0,0,0,10.6-9.255l1.752-3.041a138.613,138.613,0,0,0,6.777,12.695c1.964,3.056,3.849,6.054,7.048,8.051C953.461,401.438,948.408,394.681,945.48,388.8Zm16.543,77.378a349.738,349.738,0,0,1-1.974,40.015,349.5,349.5,0,0,1-1.975-40.015,353.2,353.2,0,0,1,1.974-40.015A353.179,353.179,0,0,1,962.023,466.178Zm47.17-78.79c-4.021,2.054-15.119-2.31-20.806-4.684a44.424,44.424,0,0,0,2.625,15.239A25.535,25.535,0,0,1,974.52,388.8c-2.918,5.862-7.948,12.591-14.257,12.968v-.038c3.158-2,5.034-4.972,6.985-8.007a138.613,138.613,0,0,0,6.777-12.695l1.752,3.041a21.96,21.96,0,0,0,10.6,9.254,38.438,38.438,0,0,1-.251-14.649C990.752,380.99,1004.636,388.875,1009.193,387.388Z" fill="url(#a)"/><path d="M1036.456,317.845c-6.4-.729-12.412,7.535-18.9,16.817,5.939-6.161,15.26-6.421,23.786-5.3,7.538.561,15.5,1.774,23.025,2.661,8.573.962,17.324,1.9,25.865.813,9.041-1.07,15.776-5.211,17.239-14.462.055-.462.075-.693.075-.668C1095.266,328.154,1057.309,320.221,1036.456,317.845Z" fill="url(#a)"/></g></svg>